<svg width="104" height="104" viewBox="0 0 104 104" fill="none" xmlns="http://www.w3.org/2000/svg">
<g filter="url(#filter0_d_4434_5728)">
<g clip-path="url(#clip0_4434_5728)">
<rect x="20" y="16" width="64" height="64" rx="12" fill="white"/>
<g clip-path="url(#clip1_4434_5728)">
<path d="M67.7502 44.832C67.5244 41.509 66.1228 38.4158 63.7451 36.0381C61.1411 33.4341 57.679 32 53.9961 32C53.4685 32 53.041 32.4277 53.041 32.9553V44.832H67.7502Z" fill="#388FF3"/>
<path d="M42.1194 44.8323V44.1121C42.1194 41.9739 40.3799 40.2344 38.2417 40.2344H37.2678C36.7402 40.2344 36.3125 40.6621 36.3125 41.1897C36.3125 41.7173 36.7402 42.1448 37.2678 42.1448H38.2417C39.3264 42.1448 40.209 43.0273 40.209 44.1121V44.8323H42.1194Z" fill="#388FF3"/>
<path d="M62.5815 51.772C64.114 51.772 65.5337 52.2625 66.6931 53.094C67.5208 51.77 67.9114 50.2903 67.7832 48.8779V46.7422H40.209V48.9231C40.209 50.2271 40.5137 51.4609 41.0547 52.5581C42.0251 52.0562 43.126 51.772 44.292 51.772C47.6147 51.772 50.4089 54.0767 51.1614 57.1714H55.7122C56.4646 54.0767 59.2588 51.772 62.5815 51.772Z" fill="#388FF3"/>
<path d="M44.2915 53.6836C41.447 53.6836 39.1328 55.9976 39.1328 58.842C39.1328 61.6865 41.447 64.0007 44.2915 64.0007C47.136 64.0007 49.4502 61.6865 49.4502 58.842C49.4502 55.9976 47.136 53.6836 44.2915 53.6836ZM44.2915 61.9358C42.5857 61.9358 41.1978 60.5481 41.1978 58.842C41.1978 57.1362 42.5857 55.7485 44.2915 55.7485C45.9973 55.7485 47.3853 57.1362 47.3853 58.842C47.3853 60.5481 45.9973 61.9358 44.2915 61.9358Z" fill="#388FF3"/>
<path d="M44.2917 57.6582C43.6392 57.6582 43.1084 58.189 43.1084 58.8413C43.1084 59.4939 43.6392 60.0247 44.2917 60.0247C44.9443 60.0247 45.4751 59.4939 45.4751 58.8413C45.4751 58.189 44.9441 57.6582 44.2917 57.6582Z" fill="#388FF3"/>
<path d="M67.7402 58.842C67.7402 55.9976 65.426 53.6836 62.5815 53.6836C59.7371 53.6836 57.4229 55.9976 57.4229 58.842C57.4229 61.6865 59.7371 64.0007 62.5815 64.0007C65.426 64.0007 67.7402 61.6865 67.7402 58.842ZM62.5815 61.9358C60.8757 61.9358 59.4878 60.5481 59.4878 58.842C59.4878 57.1362 60.8757 55.7485 62.5815 55.7485C64.2874 55.7485 65.6753 57.1362 65.6753 58.842C65.6753 60.5481 64.2874 61.9358 62.5815 61.9358Z" fill="#388FF3"/>
<path d="M62.5818 57.6582C61.9292 57.6582 61.3984 58.189 61.3984 58.8413C61.3984 59.4939 61.9292 60.0247 62.5818 60.0247C63.2344 60.0247 63.7651 59.4939 63.7651 58.8413C63.7651 58.189 63.2344 57.6582 62.5818 57.6582Z" fill="#388FF3"/>
</g>
</g>
<rect x="20.5" y="16.5" width="63" height="63" rx="11.5" stroke="#EAEDF0"/>
</g>
<defs>
<filter id="filter0_d_4434_5728" x="0" y="0" width="104" height="104" filterUnits="userSpaceOnUse" color-interpolation-filters="sRGB">
<feFlood flood-opacity="0" result="BackgroundImageFix"/>
<feColorMatrix in="SourceAlpha" type="matrix" values="0 0 0 0 0 0 0 0 0 0 0 0 0 0 0 0 0 0 127 0" result="hardAlpha"/>
<feOffset dy="4"/>
<feGaussianBlur stdDeviation="10"/>
<feComposite in2="hardAlpha" operator="out"/>
<feColorMatrix type="matrix" values="0 0 0 0 0 0 0 0 0 0 0 0 0 0 0 0 0 0 0.08 0"/>
<feBlend mode="normal" in2="BackgroundImageFix" result="effect1_dropShadow_4434_5728"/>
<feBlend mode="normal" in="SourceGraphic" in2="effect1_dropShadow_4434_5728" result="shape"/>
</filter>
<clipPath id="clip0_4434_5728">
<rect x="20" y="16" width="64" height="64" rx="12" fill="white"/>
</clipPath>
<clipPath id="clip1_4434_5728">
<rect width="32" height="32" fill="white" transform="translate(36 32)"/>
</clipPath>
</defs>
</svg>
