<svg width="104" height="104" viewBox="0 0 104 104" fill="none" xmlns="http://www.w3.org/2000/svg">
<g filter="url(#filter0_d_4434_1279)">
<g clip-path="url(#clip0_4434_1279)">
<rect x="20" y="16" width="64" height="64" rx="12" fill="white"/>
<g clip-path="url(#clip1_4434_1279)">
<path d="M62.324 56.06L57.216 54.7827L56.7813 53.044C58.148 51.6907 59.084 49.832 59.3613 47.9253C60.1186 47.712 60.7053 47.0626 60.8066 46.248L61.1399 43.5813C61.2106 43.0186 61.0372 42.4493 60.6639 42.0226C60.4452 41.7719 60.1693 41.5826 59.8639 41.4666L59.9866 38.9559L60.4853 38.4559C61.236 37.6572 61.8586 36.2879 60.5573 34.3012C59.5573 32.7747 57.8587 32 55.5067 32C54.5787 32 52.4427 32 50.4534 33.336C44.7733 33.4547 44 36.0933 44 38.6667C44 39.2654 44.1453 40.6134 44.2413 41.4267C43.8986 41.5347 43.588 41.7347 43.3453 42.0107C42.9653 42.4414 42.7893 43.0134 42.86 43.5827L43.1933 46.2494C43.3026 47.1187 43.9626 47.8027 44.7973 47.9654C45.0733 49.7987 45.9613 51.5974 47.2493 52.9281L46.7853 54.7854L41.6773 56.0627C38.3333 56.896 36 59.8853 36 63.3333C36 63.7013 36.2987 64 36.6667 64H67.3334C67.7014 64 68.0001 63.6987 68.0001 63.3307C68 59.8853 65.6667 56.896 62.324 56.06Z" fill="#388FF3"/>
</g>
</g>
<rect x="20.5" y="16.5" width="63" height="63" rx="11.5" stroke="#EAEDF0"/>
</g>
<defs>
<filter id="filter0_d_4434_1279" x="0" y="0" width="104" height="104" filterUnits="userSpaceOnUse" color-interpolation-filters="sRGB">
<feFlood flood-opacity="0" result="BackgroundImageFix"/>
<feColorMatrix in="SourceAlpha" type="matrix" values="0 0 0 0 0 0 0 0 0 0 0 0 0 0 0 0 0 0 127 0" result="hardAlpha"/>
<feOffset dy="4"/>
<feGaussianBlur stdDeviation="10"/>
<feComposite in2="hardAlpha" operator="out"/>
<feColorMatrix type="matrix" values="0 0 0 0 0 0 0 0 0 0 0 0 0 0 0 0 0 0 0.08 0"/>
<feBlend mode="normal" in2="BackgroundImageFix" result="effect1_dropShadow_4434_1279"/>
<feBlend mode="normal" in="SourceGraphic" in2="effect1_dropShadow_4434_1279" result="shape"/>
</filter>
<clipPath id="clip0_4434_1279">
<rect x="20" y="16" width="64" height="64" rx="12" fill="white"/>
</clipPath>
<clipPath id="clip1_4434_1279">
<rect width="32" height="32" fill="white" transform="translate(36 32)"/>
</clipPath>
</defs>
</svg>
