<svg width="1230" height="292" viewBox="0 0 1230 292" fill="none" xmlns="http://www.w3.org/2000/svg">
<path d="M1229.5 233.5C1229.5 572.879 954.379 848 615 848C275.621 848 0.5 572.879 0.5 233.5C0.5 -105.879 275.621 -381 615 -381C954.379 -381 1229.5 -105.879 1229.5 233.5ZM171.492 233.5C171.492 478.443 370.057 677.008 615 677.008C859.943 677.008 1058.51 478.443 1058.51 233.5C1058.51 -11.4427 859.943 -210.008 615 -210.008C370.057 -210.008 171.492 -11.4427 171.492 233.5Z" fill="#F6F6F6"/>
<path d="M966.365 233.501C966.365 427.554 809.054 584.865 615.001 584.865C420.948 584.865 263.637 427.554 263.637 233.501C263.637 39.4477 420.948 -117.863 615.001 -117.863C809.054 -117.863 966.365 39.4477 966.365 233.501ZM404.991 233.501C404.991 349.486 499.015 443.511 615.001 443.511C730.986 443.511 825.011 349.486 825.011 233.501C825.011 117.515 730.986 23.4906 615.001 23.4906C499.015 23.4906 404.991 117.515 404.991 233.501Z" fill="#F9F9F9"/>
<circle cx="614.999" cy="233.501" r="114.542" fill="#FCFCFC"/>
</svg>
