<svg width="1230" height="615" viewBox="0 0 1230 615" fill="none" xmlns="http://www.w3.org/2000/svg">
<g opacity="0.3">
<path d="M1229.5 614.5C1229.5 953.879 954.379 1229 615 1229C275.621 1229 0.5 953.879 0.5 614.5C0.5 275.121 275.621 0 615 0C954.379 0 1229.5 275.121 1229.5 614.5ZM171.492 614.5C171.492 859.443 370.057 1058.01 615 1058.01C859.943 1058.01 1058.51 859.443 1058.51 614.5C1058.51 369.557 859.943 170.992 615 170.992C370.057 170.992 171.492 369.557 171.492 614.5Z" fill="white"/>
<path d="M966.365 614.501C966.365 808.554 809.054 965.865 615.001 965.865C420.948 965.865 263.637 808.554 263.637 614.501C263.637 420.448 420.948 263.137 615.001 263.137C809.054 263.137 966.365 420.448 966.365 614.501ZM404.991 614.501C404.991 730.486 499.015 824.511 615.001 824.511C730.986 824.511 825.011 730.486 825.011 614.501C825.011 498.515 730.986 404.491 615.001 404.491C499.015 404.491 404.991 498.515 404.991 614.501Z" fill="white"/>
<circle cx="614.999" cy="614.501" r="114.542" fill="white"/>
</g>
</svg>

