<svg width="150" height="135" viewBox="0 0 150 135" fill="none" xmlns="http://www.w3.org/2000/svg">
<g opacity="0.6">
<rect x="20" y="40" width="110" height="55" rx="10" fill="#EAEDF0"/>
<rect x="25.6875" y="45.5547" width="98.6232" height="43.8889" rx="4.5" stroke="white" stroke-width="5"/>
<path d="M53.0196 61.1115L44.3248 77.1715H39.1309L46.9935 62.734H39.1309V58.334H53.0196V61.1115Z" fill="white"/>
<path d="M69.273 61.1115L60.5782 77.1715H55.3843L63.2469 62.734H55.3843V58.334H69.273V61.1115Z" fill="white"/>
<path d="M72.6707 73.5965C73.1681 73.1748 73.7803 72.964 74.5072 72.964C75.2342 72.964 75.8464 73.1748 76.3437 73.5965C76.8603 74.0182 77.1185 74.5407 77.1185 75.164C77.1185 75.7873 76.8603 76.3098 76.3437 76.7315C75.8464 77.1532 75.2342 77.364 74.5072 77.364C73.7803 77.364 73.1681 77.1532 72.6707 76.7315C72.1733 76.3098 71.9246 75.7873 71.9246 75.164C71.9246 74.5407 72.1733 74.0182 72.6707 73.5965Z" fill="white"/>
<path d="M94.8296 77.1715H91.9026L91.5583 75.5215C90.5826 76.7498 89.0809 77.364 87.0531 77.364C85.0061 77.364 83.447 76.7498 82.3757 75.5215C81.3044 74.2932 80.7687 72.6523 80.7687 70.599V63.4215H85.2452V70.3515C85.2452 72.2582 86.087 73.2115 87.7704 73.2115C89.4922 73.2115 90.3531 72.2307 90.3531 70.269V63.4215H94.8296V77.1715Z" fill="white"/>
<path d="M110.543 77.1715H98.4905L98.5192 73.844L103.971 67.574H98.8922V63.4215H110.284L110.256 66.749L104.804 73.019H110.543V77.1715Z" fill="white"/>
</g>
</svg>
