<svg xmlns="http://www.w3.org/2000/svg" width="16" height="16" viewBox="0 0 16 16" fill="none">
  <g clip-path="url(#clip0_4602_7822)">
    <path d="M-3.5 -4H15.5V0.562022H15.1219C7.19448 0.773098 0.828572 7.60334 0.827301 15.9975H-3.5C-3.5 10.6965 -1.49636 5.60664 2.06435 1.85648C2.49739 1.4004 2.94932 0.96864 3.41821 0.562022H-3.5V-4Z" fill="#388FF3"/>
    <path d="M0.827301 15.9975V16L0.829688 15.9975H0.827301Z" fill="#388FF3"/>
    <path d="M6.99847 16H2.5C2.5 12.5531 3.97623 9.24578 6.60123 6.80828C9.22623 4.37078 12.788 3 16.5 3V7.17715C11.2527 7.17715 6.99847 11.1275 6.99847 16Z" fill="#388FF3" fill-opacity="0.64"/>
    <path d="M16.5 17H8.5C8.5 14.88 9.34414 12.8437 10.8423 11.3423C12.3405 9.84092 14.38 9 16.5 9V17Z" fill="#388FF3" fill-opacity="0.48"/>
  </g>
  <defs>
    <clipPath id="clip0_4602_7822">
      <rect width="16" height="16" rx="8" fill="white"/>
    </clipPath>
  </defs>
</svg>