<svg width="169" height="50" viewBox="0 0 169 50" fill="none" xmlns="http://www.w3.org/2000/svg">
<rect x="0.5" y="0.5" width="168" height="49" rx="4.5" fill="black"/>
<rect x="0.5" y="0.5" width="168" height="49" rx="4.5" stroke="white"/>
<path d="M85.2966 27.1886C82.3522 27.1886 79.9524 29.4248 79.9524 32.5048C79.9524 35.5661 82.3522 37.8211 85.2966 37.8211C88.2422 37.8211 90.642 35.5661 90.642 32.5048C90.6407 29.4248 88.2409 27.1886 85.2966 27.1886ZM85.2966 35.7286C83.6829 35.7286 82.2921 34.3998 82.2921 32.5061C82.2921 30.5923 83.6842 29.2836 85.2966 29.2836C86.9102 29.2836 88.301 30.5923 88.301 32.5061C88.301 34.3986 86.9102 35.7286 85.2966 35.7286ZM73.6368 27.1886C70.6925 27.1886 68.2927 29.4248 68.2927 32.5048C68.2927 35.5661 70.6925 37.8211 73.6368 37.8211C76.5824 37.8211 78.9822 35.5661 78.9822 32.5048C78.9822 29.4248 76.5824 27.1886 73.6368 27.1886ZM73.6368 35.7286C72.0232 35.7286 70.6324 34.3998 70.6324 32.5061C70.6324 30.5923 72.0244 29.2836 73.6368 29.2836C75.2505 29.2836 76.6413 30.5923 76.6413 32.5061C76.6425 34.3986 75.2505 35.7286 73.6368 35.7286ZM59.7688 28.8211V31.0761H65.1743C65.0128 32.3448 64.5897 33.2711 63.9437 33.9148C63.1576 34.6998 61.927 35.5661 59.7688 35.5661C56.4414 35.5661 53.84 32.8873 53.84 29.5648C53.84 26.2423 56.4414 23.5636 59.7688 23.5636C61.564 23.5636 62.8747 24.2686 63.8423 25.1748L65.436 23.5836C64.084 22.2948 62.29 21.3086 59.7688 21.3086C55.2108 21.3086 51.3789 25.0136 51.3789 29.5648C51.3789 34.1161 55.2108 37.8211 59.7688 37.8211C62.2287 37.8211 64.0852 37.0148 65.5361 35.5048C67.0283 34.0148 67.4927 31.9198 67.4927 30.2286C67.4927 29.7061 67.4527 29.2223 67.3713 28.8198H59.7688V28.8211ZM116.488 30.5723C116.045 29.3848 114.693 27.1886 111.93 27.1886C109.187 27.1886 106.907 29.3436 106.907 32.5048C106.907 35.4848 109.167 37.8211 112.191 37.8211C114.631 37.8211 116.043 36.3311 116.629 35.4648L114.814 34.2561C114.209 35.1423 113.382 35.7261 112.191 35.7261C111.002 35.7261 110.155 35.1823 109.61 34.1148L116.729 31.1748L116.488 30.5723ZM109.227 32.3448C109.167 30.2898 110.821 29.2436 112.011 29.2436C112.939 29.2436 113.725 29.7073 113.988 30.3711L109.227 32.3448ZM103.44 37.4998H105.778V21.8736H103.44V37.4998ZM99.6065 28.3773H99.5264C99.0019 27.7523 97.9929 27.1886 96.7235 27.1886C94.0608 27.1886 91.6209 29.5248 91.6209 32.5261C91.6209 35.5061 94.0608 37.8223 96.7235 37.8223C97.9941 37.8223 99.0019 37.2586 99.5264 36.6148H99.6065V37.3798C99.6065 39.4136 98.5174 40.5011 96.7635 40.5011C95.3314 40.5011 94.4439 39.4748 94.0808 38.6086L92.0441 39.4548C92.6287 40.8636 94.181 42.5961 96.7635 42.5961C99.5064 42.5961 101.826 40.9848 101.826 37.0573V27.5123H99.6078V28.3773H99.6065ZM96.925 35.7286C95.3114 35.7286 93.9606 34.3786 93.9606 32.5261C93.9606 30.6523 95.3114 29.2836 96.925 29.2836C98.5174 29.2836 99.768 30.6523 99.768 32.5261C99.768 34.3786 98.5174 35.7286 96.925 35.7286ZM127.446 21.8736H121.849V37.4998H124.184V31.5798H127.445C130.034 31.5798 132.58 29.7086 132.58 26.7273C132.58 23.7461 130.035 21.8736 127.446 21.8736ZM127.507 29.4048H124.184V24.0486H127.507C129.253 24.0486 130.244 25.4923 130.244 26.7273C130.244 27.9373 129.253 29.4048 127.507 29.4048ZM141.943 27.1611C140.252 27.1611 138.5 27.9048 137.775 29.5536L139.849 30.4173C140.292 29.5536 141.118 29.2711 141.983 29.2711C143.191 29.2711 144.419 29.9948 144.439 31.2811V31.4423C144.016 31.2011 143.11 30.8398 142.003 30.8398C139.768 30.8398 137.493 32.0661 137.493 34.3573C137.493 36.4486 139.325 37.7948 141.378 37.7948C142.948 37.7948 143.814 37.0911 144.358 36.2661H144.438V37.4723H146.694V31.4811C146.695 28.7086 144.619 27.1611 141.943 27.1611ZM141.66 35.7248C140.896 35.7248 139.828 35.3423 139.828 34.3973C139.828 33.1911 141.158 32.7286 142.306 32.7286C143.331 32.7286 143.816 32.9498 144.439 33.2511C144.258 34.6998 143.009 35.7248 141.66 35.7248ZM154.908 27.5023L152.231 34.2773H152.15L149.371 27.5023H146.855L151.023 36.9711L148.647 42.2386H151.083L157.506 27.5023H154.908ZM133.87 37.4998H136.204V21.8736H133.87V37.4998Z" fill="white"/>
<path d="M59.3603 12.8045C59.3603 13.852 59.0499 14.6857 58.4277 15.3082C57.7217 16.0482 56.8003 16.4182 55.6686 16.4182C54.5845 16.4182 53.6619 16.0432 52.9045 15.2932C52.1459 14.542 51.7666 13.612 51.7666 12.502C51.7666 11.3907 52.1459 10.4607 52.9045 9.71072C53.6619 8.95947 54.5845 8.58447 55.6686 8.58447C56.2069 8.58447 56.7214 8.68947 57.2097 8.89822C57.6991 9.10822 58.091 9.38697 58.3839 9.73572L57.7242 10.3957C57.2272 9.80197 56.5424 9.50572 55.6674 9.50572C54.8762 9.50572 54.1927 9.78322 53.6156 10.3382C53.0385 10.8932 52.7506 11.6145 52.7506 12.5007C52.7506 13.387 53.0385 14.1082 53.6156 14.6632C54.1927 15.2182 54.8762 15.4957 55.6674 15.4957C56.5061 15.4957 57.2059 15.217 57.7655 14.6582C58.1285 14.2945 58.3388 13.7882 58.3952 13.1395H55.6674V12.2382H59.3065C59.3441 12.4345 59.3603 12.6232 59.3603 12.8045Z" fill="white"/>
<path d="M65.1315 9.67204H61.7114V12.0495H64.796V12.9508H61.7114V15.3283H65.1315V16.2508H60.7463V8.75079H65.1315V9.67204Z" fill="white"/>
<path d="M69.2011 16.2508H68.2359V9.67204H66.1378V8.75079H71.2992V9.67204H69.2011V16.2508Z" fill="white"/>
<path d="M75.0334 16.2508V8.75079H75.9986V16.2508H75.0334Z" fill="white"/>
<path d="M80.2789 16.2508H79.3137V9.67204H77.2156V8.75079H82.377V9.67204H80.2789V16.2508Z" fill="white"/>
<path d="M92.1474 15.282C91.4088 16.0395 90.4912 16.4183 89.3934 16.4183C88.2955 16.4183 87.3779 16.0395 86.6405 15.282C85.9019 14.5245 85.5339 13.597 85.5339 12.5008C85.5339 11.4045 85.9019 10.477 86.6405 9.71953C87.3779 8.96203 88.2955 8.58203 89.3934 8.58203C90.485 8.58203 91.4013 8.96328 92.1424 9.72453C92.8835 10.4858 93.2541 11.4108 93.2541 12.5008C93.2541 13.597 92.8848 14.5245 92.1474 15.282ZM87.3528 14.6533C87.9087 15.2158 88.5884 15.4958 89.3934 15.4958C90.1983 15.4958 90.8793 15.2145 91.4339 14.6533C91.9897 14.0908 92.2689 13.3733 92.2689 12.5008C92.2689 11.6283 91.9897 10.9108 91.4339 10.3483C90.8793 9.78578 90.1983 9.50578 89.3934 9.50578C88.5884 9.50578 87.9087 9.78703 87.3528 10.3483C86.7983 10.9108 86.5191 11.6283 86.5191 12.5008C86.5191 13.3733 86.7983 14.0908 87.3528 14.6533Z" fill="white"/>
<path d="M94.6086 16.2508V8.75079H95.7828L99.4332 14.5845H99.4745L99.4332 13.1395V8.75079H100.398V16.2508H99.3907L95.5713 10.1333H95.53L95.5713 11.5783V16.2508H94.6086Z" fill="white"/>
<path d="M59.3603 12.8045C59.3603 13.852 59.0499 14.6857 58.4277 15.3082C57.7217 16.0482 56.8003 16.4182 55.6686 16.4182C54.5845 16.4182 53.6619 16.0432 52.9045 15.2932C52.1459 14.542 51.7666 13.612 51.7666 12.502C51.7666 11.3907 52.1459 10.4607 52.9045 9.71072C53.6619 8.95947 54.5845 8.58447 55.6686 8.58447C56.2069 8.58447 56.7214 8.68947 57.2097 8.89822C57.6991 9.10822 58.091 9.38697 58.3839 9.73572L57.7242 10.3957C57.2272 9.80197 56.5424 9.50572 55.6674 9.50572C54.8762 9.50572 54.1927 9.78322 53.6156 10.3382C53.0385 10.8932 52.7506 11.6145 52.7506 12.5007C52.7506 13.387 53.0385 14.1082 53.6156 14.6632C54.1927 15.2182 54.8762 15.4957 55.6674 15.4957C56.5061 15.4957 57.2059 15.217 57.7655 14.6582C58.1285 14.2945 58.3388 13.7882 58.3952 13.1395H55.6674V12.2382H59.3065C59.3441 12.4345 59.3603 12.6232 59.3603 12.8045Z" stroke="white" stroke-width="0.2" stroke-miterlimit="10"/>
<path d="M65.1315 9.67204H61.7114V12.0495H64.796V12.9508H61.7114V15.3283H65.1315V16.2508H60.7463V8.75079H65.1315V9.67204Z" stroke="white" stroke-width="0.2" stroke-miterlimit="10"/>
<path d="M69.2011 16.2508H68.2359V9.67204H66.1378V8.75079H71.2992V9.67204H69.2011V16.2508Z" stroke="white" stroke-width="0.2" stroke-miterlimit="10"/>
<path d="M75.0334 16.2508V8.75079H75.9986V16.2508H75.0334Z" stroke="white" stroke-width="0.2" stroke-miterlimit="10"/>
<path d="M80.2789 16.2508H79.3137V9.67204H77.2156V8.75079H82.377V9.67204H80.2789V16.2508Z" stroke="white" stroke-width="0.2" stroke-miterlimit="10"/>
<path d="M92.1474 15.282C91.4088 16.0395 90.4912 16.4183 89.3934 16.4183C88.2955 16.4183 87.3779 16.0395 86.6405 15.282C85.9019 14.5245 85.5339 13.597 85.5339 12.5008C85.5339 11.4045 85.9019 10.477 86.6405 9.71953C87.3779 8.96203 88.2955 8.58203 89.3934 8.58203C90.485 8.58203 91.4013 8.96328 92.1424 9.72453C92.8835 10.4858 93.2541 11.4108 93.2541 12.5008C93.2541 13.597 92.8848 14.5245 92.1474 15.282ZM87.3528 14.6533C87.9087 15.2158 88.5884 15.4958 89.3934 15.4958C90.1983 15.4958 90.8793 15.2145 91.4339 14.6533C91.9897 14.0908 92.2689 13.3733 92.2689 12.5008C92.2689 11.6283 91.9897 10.9108 91.4339 10.3483C90.8793 9.78578 90.1983 9.50578 89.3934 9.50578C88.5884 9.50578 87.9087 9.78703 87.3528 10.3483C86.7983 10.9108 86.5191 11.6283 86.5191 12.5008C86.5191 13.3733 86.7983 14.0908 87.3528 14.6533Z" stroke="white" stroke-width="0.2" stroke-miterlimit="10"/>
<path d="M94.6086 16.2508V8.75079H95.7828L99.4332 14.5845H99.4745L99.4332 13.1395V8.75079H100.398V16.2508H99.3907L95.5713 10.1333H95.53L95.5713 11.5783V16.2508H94.6086Z" stroke="white" stroke-width="0.2" stroke-miterlimit="10"/>
<g filter="url(#filter0_ii_4602_7784)">
<path d="M13.064 9.42133C12.6997 9.80633 12.4844 10.4038 12.4844 11.1776V38.8226C12.4844 39.5976 12.6997 40.1938 13.064 40.5788L13.1566 40.6688L28.6658 25.1826V25.0001V24.8176L13.1566 9.33008L13.064 9.42133Z" fill="url(#paint0_linear_4602_7784)"/>
<path d="M33.8349 30.3475L28.666 25.1837V25.0012V24.8187L33.8362 19.6563L33.9526 19.7225L40.0779 23.1975C41.8267 24.19 41.8267 25.8137 40.0779 26.8075L33.9526 30.2825L33.8349 30.3475Z" fill="url(#paint1_linear_4602_7784)"/>
<g filter="url(#filter1_i_4602_7784)">
<path d="M33.9529 30.28L28.665 25L13.0645 40.5788C13.6403 41.1888 14.593 41.2638 15.6658 40.6563L33.9529 30.28Z" fill="url(#paint2_linear_4602_7784)"/>
</g>
<path d="M33.9529 19.7209L15.6658 9.34588C14.593 8.73713 13.6403 8.81338 13.0645 9.42338L28.6663 25.0021L33.9529 19.7209Z" fill="url(#paint3_linear_4602_7784)"/>
</g>
<defs>
<filter id="filter0_ii_4602_7784" x="12.4844" y="8.92578" width="28.9053" height="32.1504" filterUnits="userSpaceOnUse" color-interpolation-filters="sRGB">
<feFlood flood-opacity="0" result="BackgroundImageFix"/>
<feBlend mode="normal" in="SourceGraphic" in2="BackgroundImageFix" result="shape"/>
<feColorMatrix in="SourceAlpha" type="matrix" values="0 0 0 0 0 0 0 0 0 0 0 0 0 0 0 0 0 0 127 0" result="hardAlpha"/>
<feOffset dy="-0.15"/>
<feComposite in2="hardAlpha" operator="arithmetic" k2="-1" k3="1"/>
<feColorMatrix type="matrix" values="0 0 0 0 0 0 0 0 0 0 0 0 0 0 0 0 0 0 0.12 0"/>
<feBlend mode="normal" in2="shape" result="effect1_innerShadow_4602_7784"/>
<feColorMatrix in="SourceAlpha" type="matrix" values="0 0 0 0 0 0 0 0 0 0 0 0 0 0 0 0 0 0 127 0" result="hardAlpha"/>
<feOffset dy="0.15"/>
<feComposite in2="hardAlpha" operator="arithmetic" k2="-1" k3="1"/>
<feColorMatrix type="matrix" values="0 0 0 0 1 0 0 0 0 1 0 0 0 0 1 0 0 0 0.25 0"/>
<feBlend mode="normal" in2="effect1_innerShadow_4602_7784" result="effect2_innerShadow_4602_7784"/>
</filter>
<filter id="filter1_i_4602_7784" x="13.0645" y="25" width="20.8887" height="16.0762" filterUnits="userSpaceOnUse" color-interpolation-filters="sRGB">
<feFlood flood-opacity="0" result="BackgroundImageFix"/>
<feBlend mode="normal" in="SourceGraphic" in2="BackgroundImageFix" result="shape"/>
<feColorMatrix in="SourceAlpha" type="matrix" values="0 0 0 0 0 0 0 0 0 0 0 0 0 0 0 0 0 0 127 0" result="hardAlpha"/>
<feOffset dy="-0.15"/>
<feComposite in2="hardAlpha" operator="arithmetic" k2="-1" k3="1"/>
<feColorMatrix type="matrix" values="0 0 0 0 0 0 0 0 0 0 0 0 0 0 0 0 0 0 0.08 0"/>
<feBlend mode="normal" in2="shape" result="effect1_innerShadow_4602_7784"/>
</filter>
<linearGradient id="paint0_linear_4602_7784" x1="27.291" y1="10.8851" x2="6.31355" y2="31.8936" gradientUnits="userSpaceOnUse">
<stop stop-color="#00A0FF"/>
<stop offset="0.0066" stop-color="#00A1FF"/>
<stop offset="0.2601" stop-color="#00BEFF"/>
<stop offset="0.5122" stop-color="#00D2FF"/>
<stop offset="0.7604" stop-color="#00DFFF"/>
<stop offset="1" stop-color="#00E3FF"/>
</linearGradient>
<linearGradient id="paint1_linear_4602_7784" x1="42.3544" y1="25.0013" x2="12.0647" y2="25.0013" gradientUnits="userSpaceOnUse">
<stop stop-color="#FFE000"/>
<stop offset="0.4087" stop-color="#FFBD00"/>
<stop offset="0.7754" stop-color="#FFA500"/>
<stop offset="1" stop-color="#FF9C00"/>
</linearGradient>
<linearGradient id="paint2_linear_4602_7784" x1="31.0812" y1="27.8674" x2="2.63314" y2="56.3576" gradientUnits="userSpaceOnUse">
<stop stop-color="#FF3A44"/>
<stop offset="1" stop-color="#C31162"/>
</linearGradient>
<linearGradient id="paint3_linear_4602_7784" x1="9.13539" y1="0.220626" x2="21.8383" y2="12.9423" gradientUnits="userSpaceOnUse">
<stop stop-color="#32A071"/>
<stop offset="0.0685" stop-color="#2DA771"/>
<stop offset="0.4762" stop-color="#15CF74"/>
<stop offset="0.8009" stop-color="#06E775"/>
<stop offset="1" stop-color="#00F076"/>
</linearGradient>
</defs>
</svg>
