<svg xmlns="http://www.w3.org/2000/svg" width="138" height="72" viewBox="0 0 138 72" fill="none">
  <rect width="138" height="72" rx="10" fill="#388FF3"/>
  <rect x="6.5" y="6.5" width="125" height="59" rx="4.5" stroke="white" stroke-width="5"/>
  <path d="M41.424 27.636L30.516 48.66H24L33.864 29.76H24V24H41.424V27.636Z" fill="white"/>
  <path d="M61.8146 27.636L50.9066 48.66H44.3906L54.2546 29.76H44.3906V24H61.8146V27.636Z" fill="white"/>
  <path d="M66.0773 43.98C66.7013 43.428 67.4692 43.152 68.3812 43.152C69.2932 43.152 70.0612 43.428 70.6852 43.98C71.3332 44.532 71.6572 45.216 71.6572 46.032C71.6572 46.848 71.3332 47.532 70.6852 48.084C70.0612 48.636 69.2932 48.912 68.3812 48.912C67.4692 48.912 66.7013 48.636 66.0773 48.084C65.4533 47.532 65.1413 46.848 65.1413 46.032C65.1413 45.216 65.4533 44.532 66.0773 43.98Z" fill="white"/>
  <path d="M93.8766 48.66H90.2046L89.7726 46.5C88.5486 48.108 86.6646 48.912 84.1206 48.912C81.5526 48.912 79.5966 48.108 78.2526 46.5C76.9086 44.892 76.2366 42.744 76.2366 40.056V30.66H81.8526V39.732C81.8526 42.228 82.9086 43.476 85.0206 43.476C87.1806 43.476 88.2606 42.192 88.2606 39.624V30.66H93.8766V48.66Z" fill="white"/>
  <path d="M113.589 48.66H98.4694L98.5054 44.304L105.345 36.096H98.9734V30.66H113.265L113.229 35.016L106.389 43.224H113.589V48.66Z" fill="white"/>
</svg>