<svg width="211" height="206" viewBox="0 0 211 206" fill="none" xmlns="http://www.w3.org/2000/svg">
<path d="M104.856 199.999C157.242 199.999 199.712 157.048 199.712 103.879C199.712 50.7094 157.055 7.75781 104.856 7.75781C52.47 7.75781 10 50.7094 10 103.879C10 157.048 52.47 199.999 104.856 199.999Z" fill="url(#paint0_linear_2959_17466)"/>
<path d="M193.54 40.871C197.776 40.871 201.211 37.3978 201.211 33.1133C201.211 28.8287 197.776 25.3555 193.54 25.3555C189.303 25.3555 185.869 28.8287 185.869 33.1133C185.869 37.3978 189.303 40.871 193.54 40.871Z" fill="#F0F3F7"/>
<path d="M204.762 10.596C207.655 10.596 210.001 8.224 210.001 5.298C210.001 2.37199 207.655 0 204.762 0C201.869 0 199.523 2.37199 199.523 5.298C199.523 8.224 201.869 10.596 204.762 10.596Z" fill="#F0F3F7"/>
<g filter="url(#filter0_d_2959_17466)">
<rect x="96.6797" y="45.4883" width="91.6402" height="118.71" rx="6" fill="white"/>
</g>
<rect opacity="0.7" x="110.043" y="137.082" width="64.9118" height="13.5594" rx="2" fill="#388FF3"/>
<path d="M110.043 117.707H174" stroke="#D5D8DB" stroke-width="2" stroke-miterlimit="10"/>
<path d="M110.043 107.832H174" stroke="#D5D8DB" stroke-width="2" stroke-miterlimit="10"/>
<path d="M110.043 126.951H147.272" stroke="#D5D8DB" stroke-width="2" stroke-miterlimit="10"/>
<path d="M98.5879 51.4258C98.5879 49.2166 100.379 47.4258 102.588 47.4258H182.41C184.619 47.4258 186.41 49.2166 186.41 51.4258V94.7998H98.5879V51.4258Z" fill="#EAEDF0"/>
<path d="M147.466 65.1016C148.541 65.1016 149.412 64.18 149.412 63.043C149.412 61.9061 148.541 60.9844 147.466 60.9844C146.391 60.9844 145.52 61.9061 145.52 63.043C145.52 64.18 146.391 65.1016 147.466 65.1016Z" fill="#D5D8DB"/>
<path d="M147.579 78.468H132.729C131.771 78.468 131.212 77.2921 131.771 76.5362L139.196 65.6172C139.675 64.9453 140.633 64.9453 141.112 65.6172L148.537 76.5362C149.096 77.3761 148.537 78.468 147.579 78.468Z" fill="#D5D8DB"/>
<path opacity="0.7" d="M152.75 78.2438H145.441C144.331 78.2438 143.776 77.023 144.331 76.1778L147.939 71.0127C148.494 70.2614 149.512 70.2614 150.067 71.0127L153.675 76.1778C154.507 77.023 153.86 78.2438 152.75 78.2438Z" fill="#D5D8DB"/>
<g filter="url(#filter1_d_2959_17466)">
<rect x="22.1191" y="45.4883" width="91.6402" height="118.71" rx="6" fill="white"/>
</g>
<rect opacity="0.7" x="35.4844" y="137.082" width="64.9118" height="13.5594" rx="2" fill="#388FF3"/>
<path d="M35.4844 117.707H99.4416" stroke="#D5D8DB" stroke-width="2" stroke-miterlimit="10"/>
<path d="M35.4844 107.832H99.4416" stroke="#D5D8DB" stroke-width="2" stroke-miterlimit="10"/>
<path d="M35.4844 126.951H72.7132" stroke="#D5D8DB" stroke-width="2" stroke-miterlimit="10"/>
<path d="M24.0293 51.4258C24.0293 49.2166 25.8202 47.4258 28.0293 47.4258H107.851C110.06 47.4258 111.851 49.2166 111.851 51.4258V94.7998H24.0293V51.4258Z" fill="#EAEDF0"/>
<path d="M72.9601 65.1016C74.0351 65.1016 74.9066 64.18 74.9066 63.043C74.9066 61.9061 74.0351 60.9844 72.9601 60.9844C71.8851 60.9844 71.0137 61.9061 71.0137 63.043C71.0137 64.18 71.8851 65.1016 72.9601 65.1016Z" fill="#D5D8DB"/>
<path d="M73.0733 78.468H58.2234C57.2654 78.468 56.7065 77.2921 57.2654 76.5362L64.6903 65.6172C65.1694 64.9453 66.1274 64.9453 66.6064 65.6172L74.0314 76.5362C74.5902 77.3761 74.0314 78.468 73.0733 78.468Z" fill="#D5D8DB"/>
<path opacity="0.7" d="M78.2399 78.2438H70.9314C69.8213 78.2438 69.2662 77.023 69.8213 76.1778L73.4293 71.0127C73.9843 70.2614 75.002 70.2614 75.5571 71.0127L79.1651 76.1778C79.9977 77.023 79.3501 78.2438 78.2399 78.2438Z" fill="#D5D8DB"/>
<g filter="url(#filter2_d_2959_17466)">
<rect x="55.668" y="40.0977" width="102.493" height="132.146" rx="6" fill="white"/>
</g>
<rect x="70.6152" y="142.057" width="72.5993" height="15.094" rx="2" fill="#388FF3"/>
<path d="M70.6152 120.494H142.147" stroke="#AAB2C5" stroke-width="2" stroke-miterlimit="10"/>
<path d="M70.6152 109.5H142.147" stroke="#AAB2C5" stroke-width="2" stroke-miterlimit="10"/>
<path d="M70.6152 130.783H112.253" stroke="#AAB2C5" stroke-width="2" stroke-miterlimit="10"/>
<path d="M57.8047 46.2539C57.8047 44.0448 59.5955 42.2539 61.8047 42.2539H152.027C154.236 42.2539 156.027 44.0448 156.027 46.2539V94.9897H57.8047V46.2539Z" fill="#EAEDF0"/>
<path d="M112.638 61.9309C113.84 61.9309 114.815 60.9049 114.815 59.6393C114.815 58.3736 113.84 57.3477 112.638 57.3477C111.436 57.3477 110.461 58.3736 110.461 59.6393C110.461 60.9049 111.436 61.9309 112.638 61.9309Z" fill="#8E9297"/>
<path d="M112.765 76.8114H96.1562C95.0847 76.8114 94.4597 75.5025 95.0847 74.661L103.389 62.5063C103.925 61.7583 104.996 61.7583 105.532 62.5063L113.836 74.661C114.461 75.596 113.836 76.8114 112.765 76.8114Z" fill="#8E9297"/>
<path opacity="0.7" d="M118.546 76.5615H110.372C109.13 76.5615 108.509 75.2025 109.13 74.2617L113.166 68.512C113.786 67.6757 114.925 67.6757 115.545 68.512L119.581 74.2617C120.512 75.2025 119.788 76.5615 118.546 76.5615Z" fill="#8E9297"/>
<defs>
<filter id="filter0_d_2959_17466" x="74.6797" y="34.4883" width="135.641" height="162.711" filterUnits="userSpaceOnUse" color-interpolation-filters="sRGB">
<feFlood flood-opacity="0" result="BackgroundImageFix"/>
<feColorMatrix in="SourceAlpha" type="matrix" values="0 0 0 0 0 0 0 0 0 0 0 0 0 0 0 0 0 0 127 0" result="hardAlpha"/>
<feOffset dy="11"/>
<feGaussianBlur stdDeviation="11"/>
<feColorMatrix type="matrix" values="0 0 0 0 0.721383 0 0 0 0 0.731497 0 0 0 0 0.743056 0 0 0 0.2 0"/>
<feBlend mode="normal" in2="BackgroundImageFix" result="effect1_dropShadow_2959_17466"/>
<feBlend mode="normal" in="SourceGraphic" in2="effect1_dropShadow_2959_17466" result="shape"/>
</filter>
<filter id="filter1_d_2959_17466" x="0.119141" y="34.4883" width="135.641" height="162.711" filterUnits="userSpaceOnUse" color-interpolation-filters="sRGB">
<feFlood flood-opacity="0" result="BackgroundImageFix"/>
<feColorMatrix in="SourceAlpha" type="matrix" values="0 0 0 0 0 0 0 0 0 0 0 0 0 0 0 0 0 0 127 0" result="hardAlpha"/>
<feOffset dy="11"/>
<feGaussianBlur stdDeviation="11"/>
<feColorMatrix type="matrix" values="0 0 0 0 0.721383 0 0 0 0 0.731497 0 0 0 0 0.743056 0 0 0 0.2 0"/>
<feBlend mode="normal" in2="BackgroundImageFix" result="effect1_dropShadow_2959_17466"/>
<feBlend mode="normal" in="SourceGraphic" in2="effect1_dropShadow_2959_17466" result="shape"/>
</filter>
<filter id="filter2_d_2959_17466" x="33.668" y="29.0977" width="146.494" height="176.145" filterUnits="userSpaceOnUse" color-interpolation-filters="sRGB">
<feFlood flood-opacity="0" result="BackgroundImageFix"/>
<feColorMatrix in="SourceAlpha" type="matrix" values="0 0 0 0 0 0 0 0 0 0 0 0 0 0 0 0 0 0 127 0" result="hardAlpha"/>
<feOffset dy="11"/>
<feGaussianBlur stdDeviation="11"/>
<feColorMatrix type="matrix" values="0 0 0 0 0.721383 0 0 0 0 0.731497 0 0 0 0 0.743056 0 0 0 0.2 0"/>
<feBlend mode="normal" in2="BackgroundImageFix" result="effect1_dropShadow_2959_17466"/>
<feBlend mode="normal" in="SourceGraphic" in2="effect1_dropShadow_2959_17466" result="shape"/>
</filter>
<linearGradient id="paint0_linear_2959_17466" x1="10" y1="7.75781" x2="10" y2="199.999" gradientUnits="userSpaceOnUse">
<stop stop-color="#FBFDFE"/>
<stop offset="1" stop-color="#F0F5FA"/>
</linearGradient>
</defs>
</svg>
