<svg width="567" height="285" viewBox="0 0 567 285" fill="none" xmlns="http://www.w3.org/2000/svg">
<path d="M129 221.235H109.879V262H78.6388V221.235H0V195.559C8.07933 183.206 16.0689 170.676 23.9687 157.971C32.048 145.088 39.5887 132.294 46.5908 119.588C53.5929 106.706 59.3382 94.1765 63.8267 82H99.1065C92.4635 100 83.4864 118.529 72.1754 137.588C60.8643 156.471 49.1942 174.912 37.1649 192.912H78.6388V165.647H109.879V192.912H129V221.235Z" fill="#16191D"/>
<g clip-path="url(#clip0_2617_21009)">
<path d="M413.81 264.489C413.81 272.475 385.691 279.396 344.652 282.783C327.489 284.206 308.068 285 287.503 285C266.938 285 247.503 284.206 230.349 282.783C189.311 279.396 161.191 272.475 161.191 264.489C161.191 256.504 189.311 249.578 230.349 246.191C247.512 244.769 266.933 243.975 287.503 243.975C308.073 243.975 327.503 244.769 344.652 246.191C385.691 249.578 413.81 256.504 413.81 264.489Z" fill="url(#paint0_linear_2617_21009)"/>
<path d="M344.664 217.292V282.783C327.501 284.206 308.081 285 287.515 285C266.95 285 247.516 284.206 230.362 282.783V217.292C230.294 209.757 231.722 202.283 234.564 195.302C237.406 188.322 241.605 181.972 246.918 176.62C252.232 171.268 258.555 167.02 265.523 164.12C272.49 161.221 279.964 159.729 287.513 159.729C295.062 159.729 302.535 161.221 309.503 164.12C316.47 167.02 322.794 171.268 328.107 176.62C333.421 181.972 337.62 188.322 340.462 195.302C343.304 202.283 344.732 209.757 344.664 217.292Z" fill="url(#paint1_linear_2617_21009)"/>
<path d="M312.225 244.169C319.464 244.169 325.333 238.311 325.333 231.085C325.333 223.858 319.464 218 312.225 218C304.986 218 299.117 223.858 299.117 231.085C299.117 238.311 304.986 244.169 312.225 244.169Z" fill="url(#paint2_radial_2617_21009)"/>
<path d="M319.674 234.334C321.702 234.334 323.347 232.692 323.347 230.667C323.347 228.642 321.702 227 319.674 227C317.645 227 316 228.642 316 230.667C316 232.692 317.645 234.334 319.674 234.334Z" fill="#16191D"/>
<path d="M262.776 244.169C270.015 244.169 275.884 238.311 275.884 231.085C275.884 223.858 270.015 218 262.776 218C255.537 218 249.668 223.858 249.668 231.085C249.668 238.311 255.537 244.169 262.776 244.169Z" fill="url(#paint3_radial_2617_21009)"/>
<path d="M269.674 234.334C271.702 234.334 273.347 232.692 273.347 230.667C273.347 228.642 271.702 227 269.674 227C267.645 227 266 228.642 266 230.667C266 232.692 267.645 234.334 269.674 234.334Z" fill="#16191D"/>
<path d="M375.094 181.246L195.344 237.55L196.089 192.463L196.548 164.403L196.718 154.104L197.546 103.62L198.176 65.2618L198.921 18.4724C198.949 16.7044 199.535 14.9903 200.595 13.5734C201.654 12.1564 203.134 11.1086 204.824 10.5786L237.385 0.385408C239.074 -0.140029 240.885 -0.122304 242.563 0.436077C244.241 0.994457 245.701 2.06524 246.736 3.49705L274.134 41.438L296.603 72.5636L326.193 113.543L332.253 121.9L348.685 144.668L375.094 181.246Z" fill="url(#paint4_linear_2617_21009)"/>
<path d="M411.653 185.748L167.913 262.098C166.957 262.398 165.952 262.507 164.955 262.418C163.957 262.33 162.987 262.046 162.099 261.583C161.211 261.121 160.424 260.488 159.781 259.721C159.139 258.954 158.654 258.068 158.354 257.114C158.054 256.16 157.945 255.157 158.034 254.161C158.122 253.165 158.407 252.197 158.87 251.311C159.334 250.425 159.968 249.638 160.736 248.997C161.504 248.356 162.392 247.872 163.347 247.573L407.088 171.223C408.043 170.923 409.048 170.814 410.046 170.903C411.044 170.991 412.014 171.275 412.902 171.738C413.789 172.201 414.577 172.834 415.219 173.6C415.862 174.367 416.347 175.253 416.646 176.207C416.947 177.161 417.056 178.164 416.968 179.16C416.88 180.156 416.596 181.125 416.132 182.011C415.668 182.898 415.034 183.684 414.265 184.325C413.497 184.966 412.609 185.45 411.653 185.748Z" fill="url(#paint5_linear_2617_21009)"/>
<path d="M296.614 72.5631L197.539 103.597L198.169 65.2384L274.145 41.4375L296.614 72.5631Z" fill="url(#paint6_linear_2617_21009)"/>
<path d="M348.674 144.664L196.082 192.463L196.712 154.104L326.205 113.543L348.674 144.664Z" fill="url(#paint7_linear_2617_21009)"/>
<path style="mix-blend-mode:multiply" d="M375.094 181.247L195.344 237.55L196.089 192.463L196.544 164.403L332.244 121.9L348.676 144.669L375.094 181.247Z" fill="url(#paint8_linear_2617_21009)"/>
<path style="mix-blend-mode:screen" d="M365.354 178.677C363.244 180.168 320.385 120.515 291.516 79.8477C262.647 39.1806 238.303 5.00299 240.408 3.51142C242.514 2.01985 268.063 35.1098 296.932 75.7814C325.801 116.453 367.469 177.185 365.354 178.677Z" fill="url(#paint9_radial_2617_21009)"/>
</g>
<path d="M567 221.235H547.879V262H516.639V221.235H438V195.559C446.079 183.206 454.069 170.676 461.969 157.971C470.048 145.088 477.589 132.294 484.591 119.588C491.593 106.706 497.338 94.1765 501.827 82H537.106C530.463 100 521.486 118.529 510.175 137.588C498.864 156.471 487.194 174.912 475.165 192.912H516.639V165.647H547.879V192.912H567V221.235Z" fill="#16191D"/>
<defs>
<linearGradient id="paint0_linear_2617_21009" x1="287.503" y1="289.02" x2="287.503" y2="226.764" gradientUnits="userSpaceOnUse">
<stop stop-color="#303030"/>
<stop offset="0.28" stop-color="#494949"/>
<stop offset="0.87" stop-color="#888888"/>
<stop offset="1" stop-color="#969696"/>
</linearGradient>
<linearGradient id="paint1_linear_2617_21009" x1="245.35" y1="276.234" x2="348.201" y2="181.425" gradientUnits="userSpaceOnUse">
<stop stop-color="#16191D"/>
<stop offset="1" stop-color="#15191D"/>
</linearGradient>
<radialGradient id="paint2_radial_2617_21009" cx="0" cy="0" r="1" gradientUnits="userSpaceOnUse" gradientTransform="translate(313.572 227.854) scale(19.255 19.2206)">
<stop stop-color="#EBEBEB"/>
<stop offset="0.4" stop-color="#E9E9E9"/>
<stop offset="0.59" stop-color="#E1E2E4"/>
<stop offset="0.74" stop-color="#D4D5DA"/>
<stop offset="0.86" stop-color="#C2C4CB"/>
<stop offset="0.97" stop-color="#AAAEB9"/>
<stop offset="1" stop-color="#A2A6B3"/>
</radialGradient>
<radialGradient id="paint3_radial_2617_21009" cx="0" cy="0" r="1" gradientUnits="userSpaceOnUse" gradientTransform="translate(264.123 227.854) scale(19.255 19.2206)">
<stop stop-color="#EBEBEB"/>
<stop offset="0.4" stop-color="#E9E9E9"/>
<stop offset="0.59" stop-color="#E1E2E4"/>
<stop offset="0.74" stop-color="#D4D5DA"/>
<stop offset="0.86" stop-color="#C2C4CB"/>
<stop offset="0.97" stop-color="#AAAEB9"/>
<stop offset="1" stop-color="#A2A6B3"/>
</radialGradient>
<linearGradient id="paint4_linear_2617_21009" x1="184.121" y1="137.561" x2="312.748" y2="86.7307" gradientUnits="userSpaceOnUse">
<stop stop-color="#EB6B38"/>
<stop offset="0.14" stop-color="#EF792E"/>
<stop offset="0.49" stop-color="#F89719"/>
<stop offset="0.79" stop-color="#FDA90C"/>
<stop offset="1" stop-color="#FFB007"/>
</linearGradient>
<linearGradient id="paint5_linear_2617_21009" x1="158.705" y1="256.902" x2="415.805" y2="175.567" gradientUnits="userSpaceOnUse">
<stop stop-color="#EB6B38"/>
<stop offset="0.14" stop-color="#EF792E"/>
<stop offset="0.49" stop-color="#F89719"/>
<stop offset="0.79" stop-color="#FDA90C"/>
<stop offset="1" stop-color="#FFB007"/>
</linearGradient>
<linearGradient id="paint6_linear_2617_21009" x1="197.945" y1="112.561" x2="283.556" y2="36.7703" gradientUnits="userSpaceOnUse">
<stop stop-color="#B5BAC7"/>
<stop offset="0.02" stop-color="#B8BDC9"/>
<stop offset="0.28" stop-color="#D7DAE1"/>
<stop offset="0.54" stop-color="#EDEEF1"/>
<stop offset="0.78" stop-color="#FAFBFC"/>
<stop offset="1" stop-color="white"/>
</linearGradient>
<linearGradient id="paint7_linear_2617_21009" x1="190.704" y1="175.124" x2="342.592" y2="127.073" gradientUnits="userSpaceOnUse">
<stop stop-color="#B5BAC7"/>
<stop offset="0.14" stop-color="#CDD1D9"/>
<stop offset="0.31" stop-color="#E3E5EA"/>
<stop offset="0.49" stop-color="#F3F4F6"/>
<stop offset="0.7" stop-color="#FCFCFD"/>
<stop offset="1" stop-color="white"/>
</linearGradient>
<linearGradient id="paint8_linear_2617_21009" x1="290.656" y1="226.984" x2="275.133" y2="177.739" gradientUnits="userSpaceOnUse">
<stop stop-color="#8D6C5A"/>
<stop offset="0.17" stop-color="#AC9487"/>
<stop offset="0.35" stop-color="#C9BAB1"/>
<stop offset="0.53" stop-color="#E1D8D3"/>
<stop offset="0.71" stop-color="#F1EEEB"/>
<stop offset="0.86" stop-color="#FCFBFA"/>
<stop offset="1" stop-color="white"/>
</linearGradient>
<radialGradient id="paint9_radial_2617_21009" cx="0" cy="0" r="1" gradientUnits="userSpaceOnUse" gradientTransform="translate(300.406 87.189) rotate(54.6793) scale(96.089 2.66861)">
<stop stop-color="#EBEBEB"/>
<stop offset="0.09" stop-color="#E3E3E3"/>
<stop offset="0.23" stop-color="#CBCBCB"/>
<stop offset="0.41" stop-color="#A6A6A6"/>
<stop offset="0.62" stop-color="#8E9297"/>
<stop offset="0.85" stop-color="#63676C"/>
<stop offset="1" stop-color="#16191D"/>
</radialGradient>
<clipPath id="clip0_2617_21009">
<rect width="259" height="285" fill="white" transform="translate(158)"/>
</clipPath>
</defs>
</svg>
