<svg width="128" height="156" viewBox="0 0 128 156" fill="none" xmlns="http://www.w3.org/2000/svg">
<path d="M103.544 133C105.498 133.005 107.381 132.264 108.817 130.926C114.805 125.331 119.596 118.558 122.895 111.025C126.193 103.492 127.93 95.3571 127.997 87.1214C128.304 53.6336 101.33 26.0792 68.1448 26.0002C34.9412 25.9211 8.00004 53.0606 8.00004 86.5503C7.99056 94.8856 9.69127 103.133 12.9951 110.772C16.2989 118.411 21.1342 125.278 27.1967 130.939C28.6292 132.27 30.5072 133.006 32.4547 133H103.544Z" fill="url(#paint0_linear_486_25541)"/>
<path d="M24.8555 132.739C24.2048 132.739 23.5604 132.61 22.9592 132.36C22.3581 132.111 21.8118 131.744 21.3517 131.283C20.8916 130.821 20.5266 130.273 20.2776 129.67C20.0286 129.067 19.9004 128.421 19.9004 127.768V42.0155C19.9004 40.6972 20.4224 39.4329 21.3517 38.5008C22.281 37.5686 23.5413 37.0449 24.8555 37.0449H61.6058L83.3699 58.877V127.768C83.3699 129.086 82.8479 130.351 81.9186 131.283C80.9894 132.215 79.729 132.739 78.4149 132.739H24.8555Z" fill="#EAEDF0"/>
<g filter="url(#filter0_d_486_25541)">
<path d="M35.0596 121.954C34.4089 121.954 33.7645 121.825 33.1633 121.575C32.5622 121.325 32.0159 120.959 31.5558 120.498C31.0957 120.036 30.7307 119.488 30.4817 118.885C30.2327 118.282 30.1045 117.636 30.1045 116.983V31.2303C30.1045 30.5776 30.2327 29.9312 30.4817 29.3282C30.7307 28.7251 31.0957 28.1772 31.5558 27.7156C32.0159 27.2541 32.5622 26.8879 33.1633 26.6381C33.7645 26.3883 34.4089 26.2598 35.0596 26.2598H71.81L93.5741 48.0919V116.983C93.5741 117.636 93.4459 118.282 93.1969 118.885C92.9479 119.488 92.5829 120.036 92.1227 120.498C91.6626 120.959 91.1164 121.325 90.5152 121.575C89.914 121.825 89.2697 121.954 88.619 121.954H35.0596Z" fill="white"/>
</g>
<path d="M76.7656 48.0919C75.4515 48.0919 74.1911 47.5682 73.2619 46.636C72.3326 45.7039 71.8105 44.4396 71.8105 43.1213V26.2598L93.5746 48.0919H76.7656Z" fill="#388FF3"/>
<path fill-rule="evenodd" clip-rule="evenodd" d="M53.2847 74.0668C51.0985 74.0668 49.3262 72.2889 49.3262 70.0959C49.3262 67.9028 51.0985 66.125 53.2847 66.125C55.4709 66.125 57.2432 67.9028 57.2432 70.0959C57.2432 72.2889 55.4709 74.0668 53.2847 74.0668Z" fill="#388FF3"/>
<path fill-rule="evenodd" clip-rule="evenodd" d="M70.1382 74.0668C67.952 74.0668 66.1797 72.2889 66.1797 70.0959C66.1797 67.9028 67.952 66.125 70.1382 66.125C72.3244 66.125 74.0967 67.9028 74.0967 70.0959C74.0967 72.2889 72.3244 74.0668 70.1382 74.0668Z" fill="#388FF3"/>
<path d="M73.354 88.7389C73.0506 88.6129 72.7751 88.4279 72.5432 88.1947C69.6679 85.317 65.772 83.7008 61.7103 83.7008C57.6486 83.7008 53.7527 85.3169 50.8773 88.1946C50.6452 88.4275 50.3696 88.6123 50.0663 88.7384C49.763 88.8645 49.4379 88.9294 49.1095 88.9294C48.7812 88.9294 48.4561 88.8646 48.1527 88.7386C47.8494 88.6125 47.5738 88.4278 47.3416 88.1949C47.1094 87.962 46.9253 87.6855 46.7996 87.3812C46.674 87.0769 46.6093 86.7508 46.6094 86.4214C46.6094 86.0921 46.6741 85.766 46.7998 85.4617C46.9255 85.1574 47.1097 84.881 47.3419 84.6481C51.1556 80.8311 56.3229 78.6875 61.7102 78.6875C67.0975 78.6875 72.2649 80.831 76.0786 84.648C76.4283 84.9987 76.6664 85.4455 76.7629 85.932C76.8594 86.4185 76.8099 86.9227 76.6207 87.381C76.4314 87.8393 76.111 88.2309 75.6999 88.5065C75.2887 88.7821 74.8054 88.9292 74.3109 88.9292L74.3109 88.9292C73.9825 88.9296 73.6573 88.865 73.354 88.7389Z" fill="#388FF3"/>
<path fill-rule="evenodd" clip-rule="evenodd" d="M88.9569 97.4682L106.243 114.809L101.65 119.417L84.3633 102.076L88.9569 97.4682Z" fill="#D5D8DB"/>
<path fill-rule="evenodd" clip-rule="evenodd" d="M26.2278 70.4875C24.8311 77.5313 25.5479 84.8324 28.2877 91.4675C31.0275 98.1027 35.6672 103.774 41.62 107.764C47.5729 111.754 54.5715 113.883 61.731 113.883C68.8904 113.883 75.889 111.754 81.8419 107.764C87.7947 103.774 92.4344 98.1027 95.1742 91.4675C97.914 84.8324 98.6309 77.5313 97.2341 70.4875C95.8374 63.4437 92.3898 56.9736 87.3273 51.8953C83.966 48.5234 79.9754 45.8487 75.5836 44.0238C71.1918 42.199 66.4846 41.2598 61.731 41.2598C56.9773 41.2598 52.2701 42.199 47.8783 44.0238C43.4865 45.8487 39.4959 48.5234 36.1346 51.8953C31.0721 56.9736 27.6245 63.4437 26.2278 70.4875ZM67.4904 106.617C61.7637 107.76 55.8278 107.173 50.4333 104.932C45.0389 102.69 40.4282 98.8945 37.1842 94.0244C33.9403 89.1544 32.2089 83.4288 32.2089 77.5716C32.2089 71.7144 33.9403 65.9888 37.1843 61.1188C40.4282 56.2487 45.0389 52.453 50.4334 50.2116C55.8278 47.9701 61.7637 47.3837 67.4904 48.5263C73.2171 49.669 78.4775 52.4895 82.6062 56.6312C88.1427 62.1849 91.253 69.7174 91.253 77.5716C91.253 85.4258 88.1426 92.9583 82.6062 98.5121C78.4774 102.654 73.2171 105.474 67.4904 106.617Z" fill="#D5D8DB"/>
<path fill-rule="evenodd" clip-rule="evenodd" d="M92.6031 105.951C95.4818 103.063 100.149 103.063 103.028 105.951L113.94 116.897C116.819 119.785 116.819 124.467 113.94 127.355L113.94 127.355C111.062 130.243 106.394 130.243 103.515 127.355L92.6031 116.408C89.7243 113.521 89.7243 108.839 92.6031 105.951L92.6031 105.951Z" fill="#388FF3"/>
<defs>
<filter id="filter0_d_486_25541" x="0.104492" y="0.259766" width="123.47" height="155.693" filterUnits="userSpaceOnUse" color-interpolation-filters="sRGB">
<feFlood flood-opacity="0" result="BackgroundImageFix"/>
<feColorMatrix in="SourceAlpha" type="matrix" values="0 0 0 0 0 0 0 0 0 0 0 0 0 0 0 0 0 0 127 0" result="hardAlpha"/>
<feOffset dy="4"/>
<feGaussianBlur stdDeviation="15"/>
<feColorMatrix type="matrix" values="0 0 0 0 0 0 0 0 0 0 0 0 0 0 0 0 0 0 0.1 0"/>
<feBlend mode="normal" in2="BackgroundImageFix" result="effect1_dropShadow_486_25541"/>
<feBlend mode="normal" in="SourceGraphic" in2="effect1_dropShadow_486_25541" result="shape"/>
</filter>
<linearGradient id="paint0_linear_486_25541" x1="8" y1="26" x2="8" y2="133" gradientUnits="userSpaceOnUse">
<stop stop-color="#FBFDFE"/>
<stop offset="1" stop-color="#F0F5FA"/>
</linearGradient>
</defs>
</svg>
