<svg width="120" height="113" viewBox="0 0 120 113" fill="none" xmlns="http://www.w3.org/2000/svg">
<path d="M95.5437 112.982C97.4976 112.987 99.3811 112.25 100.817 110.919C106.805 105.352 111.596 98.6137 114.895 91.1183C118.193 83.6229 119.93 75.5292 119.997 67.335C120.304 34.0159 93.3295 6.60029 60.1448 6.52166C26.9412 6.44298 3.94258e-05 33.4458 3.94258e-05 66.7668C-0.00944189 75.0601 1.69126 83.2656 4.99507 90.8665C8.29887 98.4675 13.1342 105.299 19.1966 110.932C20.6292 112.256 22.5072 112.989 24.4547 112.982H95.5437Z" fill="url(#paint0_linear_460_16137)"/>
<path d="M71.6762 7.04626C70.6849 7.03753 69.7164 6.74803 68.8835 6.21143C68.0506 5.67484 67.3875 4.91321 66.9713 4.01517C66.3973 2.81312 65.4939 1.79799 64.3656 1.08737C63.2373 0.376754 61.9304 -0.000262065 60.5962 1.36671e-07H59.4003V0.102723C58.2782 0.29575 57.2194 0.756395 56.314 1.44548C55.4086 2.13457 54.6834 3.03171 54.1999 4.06061C53.7846 4.95108 53.1236 5.70492 52.2942 6.23373C51.4649 6.76254 50.5017 7.0444 49.5176 7.04626H44.703C44.3642 7.04626 44.0287 7.11286 43.7157 7.24227C43.4027 7.37167 43.1183 7.56135 42.8787 7.80046C42.6391 8.03957 42.4491 8.32343 42.3194 8.63585C42.1898 8.94826 42.123 9.2831 42.123 9.62125V13.7829C42.123 14.4658 42.3949 15.1208 42.8787 15.6037C43.3625 16.0866 44.0188 16.3579 44.703 16.3579H76.4894C77.1736 16.3579 77.8298 16.0866 78.3137 15.6037C78.7975 15.1208 79.0694 14.4658 79.0694 13.7829V9.62127C79.0694 8.93834 78.7975 8.28337 78.3137 7.80047C77.8299 7.31756 77.1736 7.04626 76.4894 7.04626H71.6762Z" fill="#388FF3"/>
<path opacity="0.15" d="M71.6762 7.04626C70.6849 7.03753 69.7164 6.74803 68.8835 6.21143C68.0506 5.67484 67.3875 4.91321 66.9713 4.01517C66.3973 2.81312 65.4939 1.79799 64.3656 1.08737C63.2373 0.376754 61.9304 -0.000262065 60.5962 1.36671e-07H59.4003V0.102723C58.2782 0.29575 57.2194 0.756395 56.314 1.44548C55.4086 2.13457 54.6834 3.03171 54.1999 4.06061C53.7846 4.95108 53.1236 5.70492 52.2942 6.23373C51.4649 6.76254 50.5017 7.0444 49.5176 7.04626H44.703C44.3642 7.04626 44.0287 7.11286 43.7157 7.24227C43.4027 7.37167 43.1183 7.56135 42.8787 7.80046C42.6391 8.03957 42.4491 8.32343 42.3194 8.63585C42.1898 8.94826 42.123 9.2831 42.123 9.62125V13.7829C42.123 14.4658 42.3949 15.1208 42.8787 15.6037C43.3625 16.0866 44.0188 16.3579 44.703 16.3579H76.4894C77.1736 16.3579 77.8298 16.0866 78.3137 15.6037C78.7975 15.1208 79.0694 14.4658 79.0694 13.7829V9.62127C79.0694 8.93834 78.7975 8.28337 78.3137 7.80047C77.8299 7.31756 77.1736 7.04626 76.4894 7.04626H71.6762Z" fill="#16191D"/>
<path fill-rule="evenodd" clip-rule="evenodd" d="M94.0935 11.9512C96.0713 11.9512 97.6746 13.5514 97.6746 15.5253V109.426C97.6746 111.4 96.0713 113 94.0935 113H27.8125C25.8347 113 24.2314 111.4 24.2314 109.426V15.5253C24.2314 13.5514 25.8347 11.9512 27.8125 11.9512H94.0935Z" fill="#F0F3F7"/>
<path fill-rule="evenodd" clip-rule="evenodd" d="M92.1873 11.9512C94.165 11.9512 95.7683 13.5514 95.7683 15.5253V109.426C95.7683 111.4 94.165 113 92.1873 113H25.9062C23.9285 113 22.3252 111.4 22.3252 109.426V15.5253C22.3252 13.5514 23.9285 11.9512 25.9062 11.9512H92.1873Z" fill="#D5D8DB"/>
<path fill-rule="evenodd" clip-rule="evenodd" d="M89.0448 15.9629C90.3329 15.9629 91.377 17.005 91.377 18.2906V106.613C91.377 107.899 90.3329 108.941 89.0448 108.941H29.047C27.759 108.941 26.7148 107.899 26.7148 106.613V18.2906C26.7148 17.005 27.759 15.9629 29.047 15.9629H89.0448Z" fill="white"/>
<path fill-rule="evenodd" clip-rule="evenodd" d="M38.5654 44.5041C35.1158 44.5041 32.3193 41.7128 32.3193 38.2696C32.3193 34.8264 35.1158 32.0352 38.5654 32.0352C42.015 32.0352 44.8115 34.8264 44.8115 38.2696C44.8115 41.7128 42.015 44.5041 38.5654 44.5041Z" fill="#388FF3"/>
<path fill-rule="evenodd" clip-rule="evenodd" d="M38.5654 62.34C35.1158 62.34 32.3193 59.5488 32.3193 56.1056C32.3193 52.6624 35.1158 49.8711 38.5654 49.8711C42.015 49.8711 44.8115 52.6624 44.8115 56.1056C44.8115 59.5488 42.015 62.34 38.5654 62.34Z" fill="#388FF3"/>
<path fill-rule="evenodd" clip-rule="evenodd" d="M38.5654 80.176C35.1158 80.176 32.3193 77.3847 32.3193 73.9415C32.3193 70.4983 35.1158 67.707 38.5654 67.707C42.015 67.707 44.8115 70.4983 44.8115 73.9415C44.8115 77.3847 42.015 80.176 38.5654 80.176Z" fill="#388FF3"/>
<path d="M36.99 41.271C36.8868 41.2283 36.7931 41.1657 36.7142 41.0868L34.9821 39.358C34.8232 39.1987 34.7341 38.983 34.7344 38.7582C34.7346 38.5334 34.8242 38.3179 34.9835 38.1589C35.1427 38 35.3586 37.9105 35.5839 37.9103C35.8091 37.91 36.0252 37.999 36.1848 38.1576L37.3155 39.2861L40.5275 36.08C40.6065 36.0009 40.7002 35.9381 40.8035 35.8952C40.9067 35.8523 41.0174 35.8302 41.1293 35.8301C41.2411 35.83 41.3519 35.8518 41.4552 35.8945C41.5586 35.9372 41.6525 35.9998 41.7316 36.0787C41.8107 36.1576 41.8734 36.2514 41.9161 36.3545C41.9589 36.4577 41.9808 36.5682 41.9807 36.6799C41.9806 36.7915 41.9584 36.902 41.9154 37.0051C41.8724 37.1082 41.8095 37.2017 41.7302 37.2805L37.9169 41.0868C37.838 41.1657 37.7442 41.2283 37.641 41.271C37.5378 41.3137 37.4272 41.3355 37.3155 41.3354C37.2038 41.3355 37.0932 41.3136 36.99 41.271Z" fill="white"/>
<path fill-rule="evenodd" clip-rule="evenodd" d="M84.282 36.3594C85.3385 36.3594 86.195 37.2142 86.195 38.2688V38.2688C86.195 39.3233 85.3385 40.1782 84.282 40.1782H51.0566C50.0001 40.1782 49.1436 39.3233 49.1436 38.2688V38.2688C49.1436 37.2142 50.0001 36.3594 51.0566 36.3594H84.282Z" fill="#D5D8DB"/>
<path d="M36.99 59.1101C36.8868 59.0674 36.7931 59.0048 36.7142 58.9259L34.9821 57.1972C34.8232 57.0378 34.7341 56.8221 34.7344 56.5973C34.7346 56.3725 34.8242 56.157 34.9835 55.998C35.1427 55.8391 35.3586 55.7497 35.5839 55.7494C35.8091 55.7492 36.0252 55.8381 36.1848 55.9967L37.3155 57.1252L40.5275 53.9192C40.6872 53.7606 40.9033 53.6716 41.1285 53.6719C41.3537 53.6721 41.5696 53.7615 41.7289 53.9205C41.8882 54.0795 41.9777 54.295 41.978 54.5198C41.9782 54.7446 41.8891 54.9603 41.7302 55.1196L37.9169 58.9259C37.838 59.0048 37.7442 59.0674 37.641 59.1101C37.5378 59.1528 37.4272 59.1747 37.3155 59.1745C37.2038 59.1747 37.0932 59.1528 36.99 59.1101Z" fill="white"/>
<path fill-rule="evenodd" clip-rule="evenodd" d="M84.282 54.1973C85.3385 54.1973 86.195 55.0521 86.195 56.1067V56.1067C86.195 57.1612 85.3385 58.0161 84.282 58.0161H51.0566C50.0001 58.0161 49.1436 57.1612 49.1436 56.1067V56.1067C49.1436 55.0521 50.0001 54.1973 51.0566 54.1973H84.282Z" fill="#D5D8DB"/>
<path d="M36.99 76.9421C36.8868 76.8995 36.7931 76.8369 36.7142 76.7579L34.9821 75.0292C34.8232 74.8699 34.7341 74.6542 34.7344 74.4294C34.7346 74.2045 34.8242 73.989 34.9835 73.8301C35.1427 73.6711 35.3586 73.5817 35.5839 73.5814C35.8091 73.5812 36.0252 73.6701 36.1848 73.8287L37.3155 74.9572L40.5275 71.7512C40.6872 71.5926 40.9033 71.5037 41.1285 71.5039C41.3537 71.5042 41.5696 71.5936 41.7289 71.7525C41.8882 71.9115 41.9777 72.127 41.978 72.3518C41.9782 72.5766 41.8891 72.7923 41.7302 72.9517L37.9169 76.7579C37.838 76.8369 37.7442 76.8995 37.641 76.9421C37.5378 76.9848 37.4272 77.0067 37.3155 77.0066C37.2038 77.0067 37.0932 76.9848 36.99 76.9421Z" fill="white"/>
<path fill-rule="evenodd" clip-rule="evenodd" d="M84.282 72.0332C85.3385 72.0332 86.195 72.8881 86.195 73.9426C86.195 74.9971 85.3385 75.852 84.282 75.852H51.0566C50.0001 75.852 49.1436 74.9971 49.1436 73.9426C49.1436 72.8881 50.0001 72.0332 51.0566 72.0332H84.282Z" fill="#D5D8DB"/>
<path fill-rule="evenodd" clip-rule="evenodd" d="M38.5654 98.0119C35.1158 98.0119 32.3193 95.2206 32.3193 91.7774C32.3193 88.3342 35.1158 85.543 38.5654 85.543C42.015 85.543 44.8115 88.3342 44.8115 91.7774C44.8115 95.2206 42.015 98.0119 38.5654 98.0119Z" fill="#D5D8DB"/>
<path fill-rule="evenodd" clip-rule="evenodd" d="M84.282 89.8691C85.3385 89.8691 86.195 90.724 86.195 91.7785V91.7785C86.195 92.8331 85.3385 93.6879 84.282 93.6879H51.0566C50.0001 93.6879 49.1436 92.8331 49.1436 91.7785V91.7785C49.1436 90.724 50.0001 89.8691 51.0566 89.8691H84.282Z" fill="#D5D8DB"/>
<path d="M70.4819 7.04627C69.4905 7.03754 68.5221 6.74804 67.6892 6.21144C66.8563 5.67484 66.1932 4.91322 65.777 4.01518C65.2028 2.81329 64.2993 1.7983 63.171 1.08771C62.0428 0.377125 60.736 0 59.4019 0C58.0678 0 56.761 0.377125 55.6327 1.08771C54.5045 1.7983 53.601 2.81329 53.0268 4.01518C52.6106 4.91322 51.9475 5.67484 51.1146 6.21144C50.2817 6.74804 49.3132 7.03754 48.3219 7.04627H43.5087C43.1699 7.04627 42.8344 7.11287 42.5214 7.24228C42.2084 7.37168 41.9239 7.56135 41.6844 7.80046C41.4448 8.03957 41.2548 8.32344 41.1251 8.63585C40.9954 8.94827 40.9287 9.28311 40.9287 9.62126V19.4344C40.9287 20.1173 41.2005 20.7723 41.6844 21.2552C42.1682 21.7381 42.8245 22.0094 43.5087 22.0094H75.295C75.6338 22.0094 75.9693 21.9428 76.2823 21.8134C76.5954 21.684 76.8798 21.4943 77.1194 21.2552C77.3589 21.0161 77.549 20.7322 77.6786 20.4198C77.8083 20.1073 77.875 19.7725 77.875 19.4343V9.62128C77.875 8.93835 77.6032 8.28338 77.1194 7.80048C76.6355 7.31757 75.9793 7.04627 75.295 7.04627H70.4819Z" fill="#388FF3"/>
<path opacity="0.2" fill-rule="evenodd" clip-rule="evenodd" d="M74.0871 18.2051C74.6486 18.2051 75.1038 18.6594 75.1038 19.2199V19.2199C75.1038 19.7804 74.6486 20.2347 74.0871 20.2347H45.5558C44.9943 20.2347 44.5391 19.7804 44.5391 19.2199V19.2199C44.5391 18.6594 44.9943 18.2051 45.5558 18.2051H74.0871Z" fill="white"/>
<path fill-rule="evenodd" clip-rule="evenodd" d="M88.8652 111.031C81.3624 111.031 75.2803 104.96 75.2803 97.4717C75.2803 89.983 81.3624 83.9121 88.8652 83.9121C96.3679 83.9121 102.45 89.983 102.45 97.4717C102.45 104.96 96.3679 111.031 88.8652 111.031Z" fill="#21B264"/>
<path d="M86.3082 103.005C86.1248 102.93 85.9582 102.82 85.8179 102.68L81.3832 98.2875C81.1001 98.0066 80.9412 97.6258 80.9414 97.2289C80.9416 96.8319 81.1008 96.4513 81.3842 96.1706C81.6675 95.8899 82.0517 95.7322 82.4524 95.732C82.8531 95.7318 83.2375 95.8892 83.5211 96.1697L86.8869 99.5037L95.3419 91.1281C95.4823 90.989 95.6489 90.8787 95.8323 90.8034C96.0157 90.7282 96.2123 90.6895 96.4108 90.6895C96.6093 90.6895 96.8059 90.7282 96.9893 90.8034C97.1727 90.8787 97.3394 90.989 97.4798 91.1281C97.6201 91.2671 97.7315 91.4322 97.8075 91.6139C97.8834 91.7956 97.9225 91.9903 97.9225 92.187C97.9225 92.3836 97.8834 92.5784 97.8075 92.7601C97.7315 92.9418 97.6201 93.1068 97.4798 93.2459L87.9558 102.68C87.8156 102.82 87.649 102.93 87.4655 103.005C87.2821 103.081 87.0854 103.119 86.8869 103.119C86.6883 103.119 86.4917 103.081 86.3082 103.005Z" fill="white"/>
<defs>
<linearGradient id="paint0_linear_460_16137" x1="0" y1="6.52148" x2="0" y2="112.983" gradientUnits="userSpaceOnUse">
<stop stop-color="#FBFDFE"/>
<stop offset="1" stop-color="#F0F5FA"/>
</linearGradient>
</defs>
</svg>
