<svg xmlns="http://www.w3.org/2000/svg" width="39" height="20" viewBox="0 0 39 20" fill="none">
  <path d="M13.2991 4.78915C8.22405 3.56992 4.67737 6.46724 2.49581 3.2094C2.48928 3.19628 2.48275 3.18972 2.47621 3.17662C2.41743 3.08485 2.49581 2.95375 2.60031 2.97996C7.09408 4.055 7.82563 3.38638 9.71327 3.6158C11.4572 3.82556 13.2991 4.78915 13.2991 4.78915Z" fill="#16191D"/>
  <path d="M14.1941 5.60953C9.7264 4.94748 6.55855 8.29708 4.16797 5.72097C4.16144 5.71442 4.15491 5.70131 4.14185 5.69476C4.07653 5.62265 4.12225 5.49155 4.22022 5.4981C8.30251 5.79963 9.26265 5.07858 10.9414 5.00648C12.5089 4.94093 14.1941 5.60953 14.1941 5.60953Z" fill="#16191D"/>
  <path d="M15.0239 6.66525C11.1245 6.13431 9.45246 9.64778 6.29115 7.49774C6.28461 7.49119 6.27808 7.48464 6.26502 7.47153C6.19971 7.41253 6.2193 7.24211 6.31074 7.24211C9.76598 7.24866 10.6673 6.44239 12.124 6.26541C14.0965 6.02942 15.0239 6.66525 15.0239 6.66525Z" fill="#16191D"/>
  <path d="M16.7801 7.82515C14.7422 8.04146 15.0624 9.68021 12.8285 9.31313C12.5346 9.26724 12.5999 9.05748 12.7306 9.01816C14.6052 8.48064 14.6052 8.12012 15.2779 7.85136C15.918 7.60883 16.7801 7.82515 16.7801 7.82515Z" fill="#16191D"/>
  <path d="M15.859 7.31909C12.9198 7.37809 12.1687 9.49536 9.69317 8.80708C9.31433 8.70219 9.44497 8.41377 9.64745 8.38755C12.4822 7.93527 12.6193 7.51574 13.6709 7.26665C14.6572 7.03067 15.859 7.31909 15.859 7.31909Z" fill="#16191D"/>
  <path d="M14.1808 4.78323C14.1612 4.816 14.1155 4.82255 14.0829 4.80944C13.4754 4.46203 12.9073 4.05561 12.2541 3.60988C11.6401 3.19691 10.3207 2.63318 7.5774 2.76428C6.27107 2.82983 4.28546 3.09859 2.23452 1.68926C1.73811 1.35495 1.23517 0.784665 0.973906 0.253718C0.947781 0.207826 0.934719 0.148828 0.928187 0.08983C0.921656 0.0308319 0.986968 -0.0150415 1.04577 0.00461854C6.12085 2.04978 7.57087 1.25008 10.7648 1.99079C12.0776 2.29888 13.704 4.21295 14.1744 4.69145C14.2005 4.71113 14.2005 4.75045 14.1808 4.78323Z" fill="#16191D"/>
  <path d="M18.5962 15.9918C18.5373 16.1751 18.5503 16.3916 18.4329 16.5489C18.2891 16.7587 17.9365 16.7783 17.7666 16.5882C17.6556 16.49 17.6556 16.3326 17.6163 16.208C17.3617 15.0871 17.1135 13.9661 16.8652 12.8386C16.8392 12.7601 16.8652 12.7076 16.9436 12.6749C17.0678 12.642 17.0808 12.7797 17.1199 12.8585C17.4008 13.6254 17.662 14.3988 17.9495 15.1657C18.0409 15.428 18.348 15.3427 18.5503 15.4084C18.7659 15.5459 18.6353 15.8016 18.5962 15.9918Z" fill="#16191D"/>
  <path d="M18.9293 12.8974C18.9555 12.9696 18.9163 13.0547 18.8379 13.0678C18.7923 13.0744 18.753 13.0678 18.74 13.0022C18.5505 12.6221 18.3872 12.2223 18.1912 11.8421C17.9366 11.6257 17.6687 11.4028 17.5121 11.0948C17.2312 10.5966 17.2572 9.94763 17.5708 9.46911C17.5968 9.43633 17.6165 9.39701 17.6427 9.36422C17.6884 9.29869 17.7863 9.3118 17.8124 9.39046C17.832 9.44945 17.845 9.50843 17.8713 9.56088C18.2239 10.6687 18.5637 11.7896 18.9293 12.8974Z" fill="#16191D"/>
  <path d="M18.9821 7.62088C18.9691 7.91585 18.8581 8.19116 18.7861 8.47303C18.7795 8.49269 18.7731 8.5058 18.7535 8.51235C18.7078 8.53203 18.6621 8.49924 18.6621 8.45337C18.6685 8.06661 18.8058 7.68643 18.7078 7.30623C18.5642 6.78839 18.2114 6.3361 18.1853 5.78547C18.1721 5.49705 18.244 5.21519 18.3029 4.93332C18.0938 4.49414 17.9958 3.98939 18.1068 3.51089C18.1264 3.45189 18.133 3.45189 18.1657 3.49776C18.3682 3.79275 18.6359 4.08773 18.6359 4.47446C18.6098 5.02509 18.3093 5.57571 18.5119 6.12634C18.6751 6.61796 19.0278 7.07681 18.9821 7.62088Z" fill="#16191D"/>
  <path d="M20.7064 5.7209C20.6934 6.44195 20.0663 7.01879 20.1382 7.75296C20.1382 8.03482 20.21 8.32324 20.1773 8.60511C20.1316 8.85419 19.8507 8.89353 19.6484 8.95253C19.5308 9.00497 19.4002 8.86731 19.4328 8.74932C19.4328 7.89717 19.4328 7.03846 19.4328 6.18631C19.4459 5.83234 19.5308 5.45869 19.7724 5.18995C19.9227 5.01296 20.0793 4.83598 20.2426 4.65899C20.2753 4.61965 20.2949 4.57377 20.2885 4.52788C20.2753 4.37057 20.2426 4.23291 20.3145 4.04936C20.4255 3.81994 20.5694 3.68229 20.7194 3.53152C20.7457 3.50531 20.7847 3.51842 20.7913 3.55118C20.8959 4.0166 20.7914 4.52133 20.5758 4.94085C20.6281 5.18995 20.7064 5.45214 20.7064 5.7209Z" fill="#16191D"/>
  <path d="M28.9551 3.0845C28.0668 3.33359 27.6553 3.63511 27.3026 3.91698C27.3026 3.91698 28.106 3.63511 29.262 3.51058C32.541 3.15006 32.7303 4.37584 36.4012 2.9534C36.5252 2.93374 36.5579 3.03206 36.5252 3.0845C36.0354 3.93665 35.4932 4.88057 33.4423 4.96578C31.2085 5.05756 30.0459 4.15952 27.9492 4.42828C26.6103 4.5987 25.9179 5.01823 25.5324 5.27388C30.1046 4.3955 29.7258 6.41445 34.2065 5.33943C34.2587 5.32631 34.3176 5.3132 34.3699 5.31975C34.4873 5.33286 34.5332 5.47709 34.4613 5.55575C34.4286 5.59507 34.3829 5.6344 34.3503 5.67372C33.7625 6.30956 33.1418 7.00439 31.0517 6.84708C28.5959 6.66353 28.4392 5.13622 23.7494 6.30301C28.2954 6.28335 28.217 7.77789 31.6397 7.33215C31.7573 7.31904 31.829 7.46326 31.7376 7.54191C31.6853 7.58779 31.6264 7.62712 31.5808 7.66646C31.0649 8.07286 30.3136 8.57104 28.9028 8.28262C25.9636 7.66646 26.336 6.44722 22.5541 7.11584C25.4998 7.1945 25.2974 8.34162 28.3216 8.62349C28.3216 8.62349 28.3216 8.62349 28.328 8.62349C28.4913 8.64315 28.5372 8.85946 28.3999 8.95124C28.2954 9.02335 28.1778 9.07577 28.0668 9.12167C25.8592 9.98037 24.8336 7.20105 22.123 7.82378C24.0629 7.9942 23.9061 8.6497 25.6566 9.12822C25.846 9.18066 25.8265 9.43632 25.6174 9.45598C23.5404 9.66574 23.7233 8.26296 22.4496 8.21052C22.11 8.19741 21.7965 8.38096 21.6266 8.68248C21.1237 9.56085 21.3261 10.3933 21.2934 10.8456C21.411 11.3176 21.5875 11.7765 21.5939 12.2745C21.6005 12.622 21.5679 12.9826 21.4567 13.3168C21.2477 14.0116 21.0388 14.7066 20.8232 15.408C20.7775 15.5521 20.7839 15.7094 20.8362 15.8471C20.9146 16.0569 20.9931 16.2601 21.0257 16.483C21.1041 16.8565 21.0518 17.2433 20.9212 17.6038C20.6469 18.279 20.3724 18.9541 20.0982 19.6359C20.0459 19.7604 20.0068 19.8916 19.9153 19.9964C19.7782 20.0227 19.7912 19.8457 19.8043 19.7604C20.0721 17.2367 20.3268 14.713 20.588 12.1894L20.7971 11.5864C20.3856 11.9403 20.2027 12.4319 19.9349 12.8711C19.9022 12.976 19.7455 12.9956 19.7129 12.8777C19.7389 12.4385 19.7977 11.9994 19.8109 11.5601C19.8499 11.1144 19.8435 10.6621 19.9938 10.236C20.1635 9.80339 20.49 9.45598 20.7449 9.08235C21.1628 8.54483 21.4763 7.9352 21.6919 7.29281C21.8225 6.89952 22.097 6.55211 22.4496 6.33579C23.671 5.5623 24.3829 4.89368 25.539 4.01531C26.6037 3.20904 27.4267 2.57975 27.8971 2.38967C30.0459 1.50473 34.3633 2.45522 38.0602 0.0429775C38.1516 -0.00946721 38.2692 0.0954046 38.1974 0.246168C37.8513 1.12455 37.4398 1.68828 36.4599 2.17335C33.6383 3.56958 30.3985 2.67809 28.9551 3.0845Z" fill="#16191D"/>
  <path d="M20.3863 4.6003C20.3863 4.6003 20.1445 4.17422 19.5567 4.12178C19.1125 4.08246 18.9102 4.23322 18.9102 4.23322C18.9102 4.23322 19.4457 4.0759 19.8638 4.44953C20.2817 4.82316 20.0531 5.14437 20.0531 5.14437C20.0531 5.14437 20.5103 4.87561 20.3863 4.6003Z" fill="#16191D"/>
  <path d="M20.3598 4.54147C20.3598 4.54147 20.0528 4.21373 19.4258 4.1875C19.4258 4.1875 19.798 4.27927 19.8439 4.48247C19.9222 4.86923 19.5826 5.38707 19.5173 5.63617C19.465 5.85903 20.3598 4.54147 20.3598 4.54147Z" fill="#16191D"/>
</svg>