<svg xmlns="http://www.w3.org/2000/svg" width="57" height="14" viewBox="0 0 57 14" fill="none">
  <path d="M29.67 10.5049C28.8199 10.6458 27.9592 10.7112 27.0979 10.7003C25.4824 10.7003 23.75 9.63194 23.75 6.64889V4.90302C23.75 1.74004 25.5661 0.840441 27.2124 0.840441C28.0353 0.833066 28.8572 0.893993 29.67 1.02258C29.7846 1.03592 29.8904 1.087 29.8904 1.21805V1.86885C29.8904 1.95992 29.8397 1.99992 29.7228 1.99992H29.6722C28.9095 1.93549 28.3145 1.90883 27.2146 1.90883C26.0134 1.90883 24.9269 2.55965 24.9269 4.90302V6.64889C24.9269 8.79911 25.8967 9.64533 27.1 9.64533C27.887 9.64533 28.4225 9.59426 28.7266 9.56748V5.8426C28.7239 5.80973 28.7278 5.77662 28.7383 5.74535C28.7487 5.71409 28.7655 5.68528 28.7872 5.66075C28.8092 5.63619 28.8358 5.61641 28.8656 5.60262C28.8954 5.58882 28.9275 5.58129 28.9602 5.5805H29.659C29.7253 5.58393 29.788 5.61312 29.8335 5.66198C29.8792 5.71082 29.9041 5.77555 29.9036 5.8426V10.2183C29.9056 10.2866 29.8829 10.3532 29.8401 10.4058C29.7971 10.4585 29.7366 10.4937 29.67 10.5049Z" fill="#B8BBBD"/>
  <path d="M34.7215 4.35616C34.1198 4.33211 33.5174 4.37607 32.9253 4.48721V10.349C32.9285 10.4125 32.9074 10.4749 32.8664 10.5231C32.8253 10.5715 32.7677 10.6022 32.7049 10.6088H32.0327C31.9675 10.6054 31.9065 10.5761 31.8626 10.5275C31.8189 10.4788 31.7961 10.4147 31.7991 10.349V4.01853C31.8028 3.95312 31.8262 3.89039 31.8658 3.8385C31.9056 3.78661 31.9599 3.74795 32.0216 3.72756C32.7577 3.40105 33.6505 3.36328 34.7215 3.36328C34.8912 3.36328 34.9949 3.3766 34.9949 3.55874V4.15626C34.9949 4.29175 34.9685 4.35616 34.7215 4.35616Z" fill="#B8BBBD"/>
  <path d="M39.0107 10.7009C37.1109 10.7009 36.1455 9.43722 36.1455 7.52246V6.53179C36.1455 4.61712 37.1152 3.35547 39.0107 3.35547C40.9061 3.35547 41.876 4.61712 41.876 6.53179V7.52246C41.876 9.43722 40.8995 10.7009 39.0107 10.7009ZM40.7562 6.53179C40.7562 5.19907 40.2252 4.35724 39.0107 4.35724C37.7963 4.35724 37.2783 5.19241 37.2783 6.53179V7.52246C37.2783 8.85509 37.7963 9.69917 39.0107 9.69917C40.2252 9.69917 40.7562 8.86402 40.7562 7.52246V6.53179Z" fill="#B8BBBD"/>
  <path d="M46.187 10.6997H46.0637C45.182 10.6997 43.4013 10.2044 43.4013 7.63896V3.7052C43.3984 3.67206 43.4025 3.6387 43.4132 3.60725C43.4239 3.57579 43.4411 3.54694 43.4636 3.52249C43.4859 3.49806 43.513 3.47858 43.5433 3.4653C43.5737 3.45201 43.6063 3.44521 43.6391 3.44531H44.3115C44.344 3.44581 44.3763 3.45306 44.4059 3.46662C44.4357 3.48017 44.4623 3.49974 44.4843 3.52411C44.5062 3.54849 44.5228 3.57715 44.5333 3.60829C44.5439 3.63945 44.5478 3.67243 44.5451 3.7052V7.63896C44.5451 9.19386 45.2063 9.69795 46.0703 9.69795H46.187C47.0511 9.69795 47.7122 9.20261 47.7122 7.63896V3.7052C47.7096 3.67261 47.7135 3.63981 47.7238 3.60881C47.7342 3.57781 47.7506 3.54926 47.7724 3.52492C47.794 3.50058 47.8204 3.48096 47.8498 3.46728C47.8793 3.45358 47.9112 3.44612 47.9437 3.44531H48.6159C48.6485 3.44581 48.6807 3.45306 48.7105 3.46662C48.7401 3.48017 48.7669 3.49974 48.7888 3.52411C48.8106 3.54849 48.8274 3.57715 48.8379 3.60829C48.8482 3.63945 48.8523 3.67243 48.8495 3.7052V7.63896C48.8495 10.2044 47.0643 10.6997 46.187 10.6997Z" fill="#B8BBBD"/>
  <path d="M53.2551 10.7012C52.7481 10.6944 52.2426 10.6469 51.7431 10.559V12.9158C51.7431 12.9483 51.7368 12.9802 51.7245 13.0102C51.7122 13.04 51.6942 13.0672 51.6715 13.0902C51.6487 13.1131 51.6217 13.1313 51.5921 13.1436C51.5623 13.1559 51.5306 13.1624 51.4984 13.1624H50.8373C50.8057 13.162 50.7745 13.1554 50.7456 13.1429C50.7167 13.1302 50.6906 13.1118 50.6688 13.0888C50.6469 13.0659 50.6299 13.0386 50.6189 13.009C50.6076 12.9793 50.6024 12.9475 50.6037 12.9158V3.95101C50.6037 3.78222 50.6433 3.70447 50.8748 3.65338C51.6537 3.46305 52.4515 3.36246 53.2529 3.35352C55.1791 3.35352 56.0719 4.61515 56.0719 6.56982V7.50495C56.074 9.55515 55.1416 10.7012 53.2551 10.7012ZM54.9345 6.57204C54.9345 5.20378 54.5356 4.31973 53.2551 4.31973C52.7485 4.3227 52.2429 4.36577 51.7431 4.44857V9.60622C52.2431 9.6889 52.7485 9.73282 53.2551 9.73729C54.5224 9.73729 54.9345 8.90428 54.9345 7.51606V6.57204Z" fill="#B8BBBD"/>
  <path d="M7.17349 10.5947C6.59157 10.6858 4.96931 10.8013 4.40737 10.8013C1.91249 10.8013 0.219727 10.1705 0.219727 7.012V1.25463C0.220262 1.22128 0.227402 1.18838 0.240785 1.15785C0.254169 1.12733 0.273261 1.09978 0.297351 1.07683C0.321263 1.05387 0.349637 1.03596 0.380509 1.02416C0.411559 1.01235 0.444573 1.00689 0.477585 1.00807H2.5847C2.61771 1.00659 2.65091 1.01184 2.68196 1.02353C2.71301 1.03523 2.74156 1.0531 2.76565 1.07612C2.78956 1.09914 2.80883 1.12681 2.82204 1.15747C2.83524 1.18815 2.8422 1.22119 2.84256 1.25463V7.012C2.84256 8.1848 3.2305 8.56684 4.14951 8.56684C4.5644 8.5655 4.97876 8.53879 5.39044 8.48688V1.25463C5.39062 1.22119 5.39758 1.18815 5.41078 1.15747C5.42399 1.12681 5.44326 1.09914 5.46735 1.07612C5.49144 1.0531 5.51982 1.03523 5.55087 1.02353C5.58192 1.01184 5.61511 1.00659 5.6483 1.00807H7.74203C7.81037 1.00503 7.87694 1.02921 7.9278 1.07533C7.97848 1.12147 8.00917 1.18588 8.01309 1.25463V9.59084C8.01309 10.3194 7.79271 10.5037 7.17349 10.5947Z" fill="#16191D"/>
  <path d="M12.0712 10.6838H9.95084C9.88303 10.6822 9.81861 10.6538 9.77114 10.6047C9.72385 10.5558 9.69727 10.4901 9.69727 10.4219V1.25266C9.69798 1.21969 9.70494 1.18718 9.71797 1.15694C9.73099 1.12671 9.74991 1.09936 9.77346 1.07646C9.79702 1.05357 9.82467 1.03557 9.85519 1.0235C9.88552 1.01143 9.91818 1.00552 9.95084 1.00611H12.0712C12.1042 1.00461 12.1374 1.00986 12.1684 1.02156C12.1995 1.03325 12.228 1.05114 12.2519 1.07416C12.276 1.09716 12.2953 1.12484 12.3085 1.15552C12.3217 1.18618 12.3287 1.21923 12.329 1.25266V10.4219C12.3292 10.4562 12.3228 10.4901 12.3099 10.5219C12.2971 10.5537 12.2782 10.5826 12.2542 10.607C12.2302 10.6313 12.2018 10.6506 12.1702 10.6638C12.1388 10.677 12.1051 10.6838 12.0712 10.6838Z" fill="#16191D"/>
  <path d="M19.5663 10.5659C18.9783 10.7348 18.3682 10.8136 17.7568 10.7991C15.3787 10.7991 13.7764 9.49757 13.7764 6.51447V5.18174C13.7764 2.18977 15.3787 0.88815 17.7568 0.88815C18.3682 0.874918 18.978 0.953522 19.5663 1.12137C19.7735 1.18801 19.8507 1.22576 19.8507 1.40792V3.07604C19.8507 3.24484 19.7735 3.32259 19.6304 3.32259H19.5906C18.9899 3.25186 18.3859 3.21331 17.7811 3.20709C17.0825 3.20709 16.4586 3.51806 16.4586 5.17285V6.50557C16.4586 8.14704 17.0802 8.47356 17.7811 8.47356C18.3859 8.46673 18.9899 8.42744 19.5906 8.35584H19.6148C19.7692 8.35584 19.8352 8.43358 19.8352 8.6024V10.2793C19.8507 10.4482 19.7735 10.5015 19.5663 10.5659Z" fill="#16191D"/>
</svg>