<svg width="24" height="24" viewBox="0 0 24 24" fill="none" xmlns="http://www.w3.org/2000/svg">
<path d="M22.2026 4.13867H1.79742C0.804703 4.13867 0 4.94337 0 5.93609V8.91448H24V5.93609C24 4.94337 23.1953 4.13867 22.2026 4.13867Z" fill="#82AFFF"/>
<path d="M0 18.0643C0 19.057 0.804703 19.8618 1.79742 19.8618H22.2026C23.1952 19.8618 24 19.057 24 18.0643V15.0859H0V18.0643Z" fill="#73AF00"/>
<path d="M24 9.56641H0V14.4316H24V9.56641Z" fill="#F5F5F5"/>
<path d="M0 9.37967V9.56764H24V9.37967V8.91406H0V9.37967Z" fill="#FF4B55"/>
<path d="M0 14.6216V15.0872H24V14.6216V14.4336H0V14.6216Z" fill="#FF4B55"/>
<path d="M5.31969 8.06553C4.47257 8.06553 3.78589 7.3805 3.78589 6.53642C3.78589 5.68925 4.47252 5.00113 5.31969 5.00113C5.32297 5.00113 5.32616 5.00113 5.32935 5.00117C5.37922 5.00183 5.39671 4.9356 5.35274 4.91202C5.09188 4.77219 4.79417 4.69306 4.47767 4.69536C3.46405 4.70258 2.64069 5.54253 2.65147 6.55616C2.66207 7.55933 3.48219 8.37135 4.49094 8.37135C4.80308 8.37135 5.09661 8.29236 5.35424 8.15445C5.39807 8.13097 5.38035 8.06474 5.33066 8.06544C5.32691 8.06553 5.3233 8.06553 5.31969 8.06553Z" fill="#F5F5F5"/>
<path d="M6.52104 7.64298L6.45255 7.84839L6.23604 7.85003C6.208 7.85021 6.19638 7.88603 6.21893 7.90267L6.39311 8.03129L6.32777 8.23773C6.31933 8.26445 6.34975 8.28657 6.37258 8.27026L6.54874 8.14436L6.7249 8.27026C6.74772 8.28657 6.7781 8.26445 6.76971 8.23773L6.70436 8.03129L6.8785 7.90267C6.90105 7.88603 6.88943 7.85021 6.86139 7.85003L6.64488 7.84839L6.5764 7.64298C6.56754 7.6164 6.52994 7.6164 6.52104 7.64298Z" fill="#F5F5F5"/>
<path d="M8.04643 7.64298L7.97794 7.84839L7.76143 7.85003C7.7334 7.85021 7.72177 7.88603 7.74432 7.90267L7.91846 8.03129L7.85311 8.23773C7.84468 8.26445 7.8751 8.28657 7.89793 8.27026L8.07408 8.14436L8.25024 8.27026C8.27307 8.28657 8.30344 8.26445 8.29505 8.23773L8.22971 8.03129L8.40385 7.90267C8.4264 7.88603 8.41477 7.85021 8.38674 7.85003L8.17022 7.84839L8.10174 7.64298C8.09288 7.6164 8.05524 7.6164 8.04643 7.64298Z" fill="#F5F5F5"/>
<path d="M9.57182 7.64298L9.50333 7.84839L9.28682 7.85003C9.25879 7.85021 9.24716 7.88603 9.26971 7.90267L9.44389 8.03129L9.37855 8.23773C9.37011 8.26445 9.40054 8.28657 9.42336 8.27026L9.59952 8.14436L9.77568 8.27026C9.7985 8.28657 9.82888 8.26445 9.82049 8.23773L9.75514 8.03129L9.92929 7.90267C9.95183 7.88603 9.94021 7.85021 9.91218 7.85003L9.69566 7.84839L9.62718 7.64298C9.61832 7.6164 9.58068 7.6164 9.57182 7.64298Z" fill="#F5F5F5"/>
<path d="M11.0972 7.64298L11.0287 7.84839L10.8122 7.85003C10.7842 7.85021 10.7726 7.88603 10.7951 7.90267L10.9692 8.03129L10.9039 8.23773C10.8955 8.26445 10.9259 8.28657 10.9487 8.27026L11.1249 8.14436L11.301 8.27026C11.3238 8.28657 11.3542 8.26445 11.3458 8.23773L11.2805 8.03129L11.4546 7.90267C11.4772 7.88603 11.4656 7.85021 11.4375 7.85003L11.221 7.84839L11.1525 7.64298C11.1437 7.6164 11.1061 7.6164 11.0972 7.64298Z" fill="#F5F5F5"/>
<path d="M12.6226 7.64298L12.5541 7.84839L12.3376 7.85003C12.3096 7.85021 12.2979 7.88603 12.3205 7.90267L12.4947 8.03129L12.4293 8.23773C12.4209 8.26445 12.4513 8.28657 12.4741 8.27026L12.6503 8.14436L12.8265 8.27026C12.8493 8.28657 12.8797 8.26445 12.8713 8.23773L12.8059 8.03129L12.9801 7.90267C13.0027 7.88603 12.991 7.85021 12.963 7.85003L12.7465 7.84839L12.678 7.64298C12.6691 7.6164 12.6315 7.6164 12.6226 7.64298Z" fill="#F5F5F5"/>
<path d="M8.04643 6.21922L7.97794 6.42463L7.76143 6.42627C7.7334 6.42646 7.72177 6.46227 7.74432 6.47891L7.91846 6.60754L7.85311 6.81397C7.84468 6.84069 7.8751 6.86282 7.89793 6.8465L8.07408 6.7206L8.25024 6.8465C8.27307 6.86282 8.30344 6.84069 8.29505 6.81397L8.22971 6.60754L8.40385 6.47891C8.4264 6.46227 8.41477 6.42646 8.38674 6.42627L8.17022 6.42463L8.10174 6.21922C8.09288 6.19255 8.05524 6.19255 8.04643 6.21922Z" fill="#F5F5F5"/>
<path d="M9.57182 6.21922L9.50333 6.42463L9.28682 6.42627C9.25879 6.42646 9.24716 6.46227 9.26971 6.47891L9.44389 6.60754L9.37855 6.81397C9.37011 6.84069 9.40054 6.86282 9.42336 6.8465L9.59952 6.7206L9.77568 6.8465C9.7985 6.86282 9.82888 6.84069 9.82049 6.81397L9.75514 6.60754L9.92929 6.47891C9.95183 6.46227 9.94021 6.42646 9.91218 6.42627L9.69566 6.42463L9.62718 6.21922C9.61832 6.19255 9.58068 6.19255 9.57182 6.21922Z" fill="#F5F5F5"/>
<path d="M11.0972 6.21922L11.0287 6.42463L10.8122 6.42627C10.7842 6.42646 10.7726 6.46227 10.7951 6.47891L10.9692 6.60754L10.9039 6.81397C10.8955 6.84069 10.9259 6.86282 10.9487 6.8465L11.1249 6.7206L11.301 6.8465C11.3238 6.86282 11.3542 6.84069 11.3458 6.81397L11.2805 6.60754L11.4546 6.47891C11.4772 6.46227 11.4656 6.42646 11.4375 6.42627L11.221 6.42463L11.1525 6.21922C11.1437 6.19255 11.1061 6.19255 11.0972 6.21922Z" fill="#F5F5F5"/>
<path d="M12.6226 6.21922L12.5541 6.42463L12.3376 6.42627C12.3096 6.42646 12.2979 6.46227 12.3205 6.47891L12.4947 6.60754L12.4293 6.81397C12.4209 6.84069 12.4513 6.86282 12.4741 6.8465L12.6503 6.7206L12.8265 6.8465C12.8493 6.86282 12.8797 6.84069 12.8713 6.81397L12.8059 6.60754L12.9801 6.47891C13.0027 6.46227 12.991 6.42646 12.963 6.42627L12.7465 6.42463L12.678 6.21922C12.6691 6.19255 12.6315 6.19255 12.6226 6.21922Z" fill="#F5F5F5"/>
<path d="M9.57182 7.64298L9.50333 7.84839L9.28682 7.85003C9.25879 7.85021 9.24716 7.88603 9.26971 7.90267L9.44389 8.03129L9.37855 8.23773C9.37011 8.26445 9.40054 8.28657 9.42336 8.27026L9.59952 8.14436L9.77568 8.27026C9.7985 8.28657 9.82888 8.26445 9.82049 8.23773L9.75514 8.03129L9.92929 7.90267C9.95183 7.88603 9.94021 7.85021 9.91218 7.85003L9.69566 7.84839L9.62718 7.64298C9.61832 7.6164 9.58068 7.6164 9.57182 7.64298Z" fill="#F5F5F5"/>
<path d="M9.57182 4.79532L9.50333 5.00073L9.28682 5.00237C9.25879 5.00256 9.24716 5.03837 9.26971 5.05501L9.44389 5.18364L9.37855 5.39007C9.37011 5.41679 9.40054 5.43892 9.42336 5.42261L9.59952 5.2967L9.77568 5.42261C9.7985 5.43892 9.82888 5.41679 9.82049 5.39007L9.75514 5.18364L9.92929 5.05501C9.95183 5.03837 9.94021 5.00256 9.91218 5.00237L9.69566 5.00073L9.62718 4.79532C9.61832 4.76875 9.58068 4.76875 9.57182 4.79532Z" fill="#F5F5F5"/>
<path d="M11.0972 7.64298L11.0287 7.84839L10.8122 7.85003C10.7842 7.85021 10.7726 7.88603 10.7951 7.90267L10.9692 8.03129L10.9039 8.23773C10.8955 8.26445 10.9259 8.28657 10.9487 8.27026L11.1249 8.14436L11.301 8.27026C11.3238 8.28657 11.3542 8.26445 11.3458 8.23773L11.2805 8.03129L11.4546 7.90267C11.4772 7.88603 11.4656 7.85021 11.4375 7.85003L11.221 7.84839L11.1525 7.64298C11.1437 7.6164 11.1061 7.6164 11.0972 7.64298Z" fill="#F5F5F5"/>
<path d="M12.6226 7.64298L12.5541 7.84839L12.3376 7.85003C12.3096 7.85021 12.2979 7.88603 12.3205 7.90267L12.4947 8.03129L12.4293 8.23773C12.4209 8.26445 12.4513 8.28657 12.4741 8.27026L12.6503 8.14436L12.8265 8.27026C12.8493 8.28657 12.8797 8.26445 12.8713 8.23773L12.8059 8.03129L12.9801 7.90267C13.0027 7.88603 12.991 7.85021 12.963 7.85003L12.7465 7.84839L12.678 7.64298C12.6691 7.6164 12.6315 7.6164 12.6226 7.64298Z" fill="#F5F5F5"/>
<path d="M11.0972 4.79532L11.0287 5.00073L10.8122 5.00237C10.7842 5.00256 10.7726 5.03837 10.7951 5.05501L10.9692 5.18364L10.9039 5.39007C10.8955 5.41679 10.9259 5.43892 10.9487 5.42261L11.1249 5.2967L11.301 5.42261C11.3238 5.43892 11.3542 5.41679 11.3458 5.39007L11.2805 5.18364L11.4546 5.05501C11.4772 5.03837 11.4656 5.00256 11.4375 5.00237L11.221 5.00073L11.1525 4.79532C11.1437 4.76875 11.1061 4.76875 11.0972 4.79532Z" fill="#F5F5F5"/>
<path d="M12.6226 4.79532L12.5541 5.00073L12.3376 5.00237C12.3096 5.00256 12.2979 5.03837 12.3205 5.05501L12.4947 5.18364L12.4293 5.39007C12.4209 5.41679 12.4513 5.43892 12.4741 5.42261L12.6503 5.2967L12.8265 5.42261C12.8493 5.43892 12.8797 5.41679 12.8713 5.39007L12.8059 5.18364L12.9801 5.05501C13.0027 5.03837 12.991 5.00256 12.963 5.00237L12.7465 5.00073L12.678 4.79532C12.6691 4.76875 12.6315 4.76875 12.6226 4.79532Z" fill="#F5F5F5"/>
</svg>